{
  "header": {
    "keySignatures": [
      {
        "key": "D",
        "scale": "major",
        "ticks": 0
      }
    ],
    "meta": [],
    "name": "Melody",
    "ppq": 840,
    "tempos": [
      {
        "bpm": 142.0000710000355,
        "ticks": 0
      }
    ],
    "timeSignatures": [
      {
        "ticks": 0,
        "timeSignature": [
          4,
          4
        ],
        "measures": 0
      }
    ]
  },
  "tracks": [
    {
      "channel": 0,
      "controlChanges": {},
      "pitchBends": [],
      "instrument": {
        "family": "piano",
        "name": "acoustic grand piano",
        "number": 0
      },
      "name": "Melody",
      "notes": [
        {
          "duration": 0.19567394642857172,
          "durationTicks": 389,
          "midi": 62,
          "name": "D4",
          "ticks": 4787,
          "time": 2.407946482142857,
          "velocity": 0.8346456692913385
        },
        {
          "duration": 0.24446667857142845,
          "durationTicks": 486,
          "midi": 65,
          "name": "F4",
          "ticks": 5176,
          "time": 2.603620428571429,
          "velocity": 0.8110236220472441
        },
        {
          "duration": 1.2811864821428576,
          "durationTicks": 2547,
          "midi": 67,
          "name": "G4",
          "ticks": 5662,
          "time": 2.8480871071428573,
          "velocity": 0.8267716535433071
        },
        {
          "duration": 0.25905419642857197,
          "durationTicks": 515,
          "midi": 69,
          "name": "A4",
          "ticks": 8209,
          "time": 4.129273589285715,
          "velocity": 0.8740157480314961
        },
        {
          "duration": 0.17404417857142818,
          "durationTicks": 346,
          "midi": 62,
          "name": "D4",
          "ticks": 10691,
          "time": 5.377763910714287,
          "velocity": 0.8661417322834646
        },
        {
          "duration": 0.2117705178571434,
          "durationTicks": 421,
          "midi": 65,
          "name": "F4",
          "ticks": 11128,
          "time": 5.597582714285714,
          "velocity": 0.8346456692913385
        },
        {
          "duration": 0.33098574999999997,
          "durationTicks": 658,
          "midi": 67,
          "name": "G4",
          "ticks": 11549,
          "time": 5.809353232142858,
          "velocity": 0.8740157480314961
        },
        {
          "duration": 0.6916495535714295,
          "durationTicks": 1375,
          "midi": 64,
          "name": "E4",
          "ticks": 12229,
          "time": 6.151405375,
          "velocity": 0.9606299212598425
        },
        {
          "duration": 0.3817905535714292,
          "durationTicks": 759,
          "midi": 69,
          "name": "A4",
          "ticks": 15007,
          "time": 7.548788982142858,
          "velocity": 0.8346456692913385
        },
        {
          "duration": 0.18259548214285637,
          "durationTicks": 363,
          "midi": 67,
          "name": "G4",
          "ticks": 15766,
          "time": 7.930579535714287,
          "velocity": 0.84251968503937
        },
        {
          "duration": 0.24446667857142934,
          "durationTicks": 486,
          "midi": 65,
          "name": "F4",
          "ticks": 16138,
          "time": 8.11770217857143,
          "velocity": 0.8188976377952756
        },
        {
          "duration": 0.17555323214285679,
          "durationTicks": 349,
          "midi": 57,
          "name": "A3",
          "ticks": 16624,
          "time": 8.362168857142859,
          "velocity": 0.7480314960629921
        },
        {
          "duration": 0.21629767857142745,
          "durationTicks": 430,
          "midi": 62,
          "name": "D4",
          "ticks": 17045,
          "time": 8.573939375000002,
          "velocity": 0.7952755905511811
        },
        {
          "duration": 0.38832978571428534,
          "durationTicks": 772,
          "midi": 65,
          "name": "F4",
          "ticks": 17482,
          "time": 8.79375817857143,
          "velocity": 0.8346456692913385
        },
        {
          "duration": 0.2520119464285724,
          "durationTicks": 501,
          "midi": 65,
          "name": "F4",
          "ticks": 18309,
          "time": 9.209753946428572,
          "velocity": 0.84251968503937
        },
        {
          "duration": 0.1302816250000003,
          "durationTicks": 259,
          "midi": 65,
          "name": "F4",
          "ticks": 18925,
          "time": 9.519612946428573,
          "velocity": 0.8503937007874016
        },
        {
          "duration": 0.1383299107142868,
          "durationTicks": 275,
          "midi": 65,
          "name": "F4",
          "ticks": 19394,
          "time": 9.755528321428573,
          "velocity": 0.8503937007874016
        },
        {
          "duration": 0.2791749107142838,
          "durationTicks": 555,
          "midi": 67,
          "name": "G4",
          "ticks": 19669,
          "time": 9.89385823214286,
          "velocity": 0.8582677165354331
        },
        {
          "duration": 0.24245460714285727,
          "durationTicks": 482,
          "midi": 67,
          "name": "G4",
          "ticks": 20285,
          "time": 10.203717232142859,
          "velocity": 0.8503937007874016
        },
        {
          "duration": 0.7771625892857159,
          "durationTicks": 1545,
          "midi": 67,
          "name": "G4",
          "ticks": 20949,
          "time": 10.537721089285714,
          "velocity": 0.8110236220472441
        },
        {
          "duration": 0.290744321428571,
          "durationTicks": 578,
          "midi": 69,
          "name": "A4",
          "ticks": 22749,
          "time": 11.443153232142858,
          "velocity": 0.7480314960629921
        },
        {
          "duration": 0.16247476785714277,
          "durationTicks": 323,
          "midi": 62,
          "name": "D4",
          "ticks": 25215,
          "time": 12.683595267857145,
          "velocity": 0.8346456692913385
        },
        {
          "duration": 0.20372223214285867,
          "durationTicks": 405,
          "midi": 65,
          "name": "F4",
          "ticks": 25571,
          "time": 12.862669625,
          "velocity": 0.84251968503937
        },
        {
          "duration": 0.8601605357142841,
          "durationTicks": 1710,
          "midi": 67,
          "name": "G4",
          "ticks": 25976,
          "time": 13.06639185714286,
          "velocity": 0.8661417322834646
        },
        {
          "duration": 0.2645873928571447,
          "durationTicks": 526,
          "midi": 64,
          "name": "E4",
          "ticks": 27862,
          "time": 14.015083535714286,
          "velocity": 0.952755905511811
        },
        {
          "duration": 0.11066392857143015,
          "durationTicks": 220,
          "midi": 62,
          "name": "D4",
          "ticks": 30967,
          "time": 15.576953982142857,
          "velocity": 0.8031496062992126
        },
        {
          "duration": 0.13279671428571227,
          "durationTicks": 264,
          "midi": 65,
          "name": "F4",
          "ticks": 31191,
          "time": 15.68962998214286,
          "velocity": 0.8267716535433071
        },
        {
          "duration": 0.12374239285714417,
          "durationTicks": 246,
          "midi": 67,
          "name": "G4",
          "ticks": 31485,
          "time": 15.837517232142858,
          "velocity": 0.8740157480314961
        },
        {
          "duration": 0.45975832142856987,
          "durationTicks": 914,
          "midi": 69,
          "name": "A4",
          "ticks": 31732,
          "time": 15.961762642857146,
          "velocity": 0.7952755905511811
        },
        {
          "duration": 0.08953717857142962,
          "durationTicks": 178,
          "midi": 72,
          "name": "C5",
          "ticks": 32729,
          "time": 16.46327144642857,
          "velocity": 0.8818897637795275
        },
        {
          "duration": 0.08400398214286042,
          "durationTicks": 167,
          "midi": 69,
          "name": "A4",
          "ticks": 32907,
          "time": 16.552808625,
          "velocity": 0.8346456692913385
        },
        {
          "duration": 0.07243457142856968,
          "durationTicks": 144,
          "midi": 67,
          "name": "G4",
          "ticks": 33074,
          "time": 16.63681260714286,
          "velocity": 0.84251968503937
        },
        {
          "duration": 0.08098587499999965,
          "durationTicks": 161,
          "midi": 65,
          "name": "F4",
          "ticks": 33218,
          "time": 16.70924717857143,
          "velocity": 0.84251968503937
        },
        {
          "duration": 0.0955733928571405,
          "durationTicks": 190,
          "midi": 62,
          "name": "D4",
          "ticks": 33379,
          "time": 16.79023305357143,
          "velocity": 0.7952755905511811
        },
        {
          "duration": 0.0663983571428588,
          "durationTicks": 132,
          "midi": 65,
          "name": "F4",
          "ticks": 33569,
          "time": 16.88580644642857,
          "velocity": 0.7952755905511811
        },
        {
          "duration": 0.06086516071428605,
          "durationTicks": 121,
          "midi": 67,
          "name": "G4",
          "ticks": 33701,
          "time": 16.95220480357143,
          "velocity": 0.8661417322834646
        },
        {
          "duration": 0.04024142857142721,
          "durationTicks": 80,
          "midi": 69,
          "name": "A4",
          "ticks": 33822,
          "time": 17.013069964285716,
          "velocity": 0.8582677165354331
        },
        {
          "duration": 0.4542251250000007,
          "durationTicks": 903,
          "midi": 72,
          "name": "C5",
          "ticks": 33902,
          "time": 17.053311392857143,
          "velocity": 0.9133858267716536
        },
        {
          "duration": 0.043259535714284425,
          "durationTicks": 86,
          "midi": 69,
          "name": "A4",
          "ticks": 35164,
          "time": 17.68811992857143,
          "velocity": 0.8110236220472441
        },
        {
          "duration": 0.178571339285714,
          "durationTicks": 355,
          "midi": 72,
          "name": "C5",
          "ticks": 35250,
          "time": 17.731379464285716,
          "velocity": 0.9133858267716536
        },
        {
          "duration": 0.07545267857143045,
          "durationTicks": 150,
          "midi": 69,
          "name": "A4",
          "ticks": 35682,
          "time": 17.94868317857143,
          "velocity": 0.8188976377952756
        },
        {
          "duration": 0.05684101785714191,
          "durationTicks": 113,
          "midi": 67,
          "name": "G4",
          "ticks": 35837,
          "time": 18.026650946428575,
          "velocity": 0.8031496062992126
        },
        {
          "duration": 0.06941646428571246,
          "durationTicks": 138,
          "midi": 65,
          "name": "F4",
          "ticks": 35962,
          "time": 18.08952817857143,
          "velocity": 0.7874015748031497
        },
        {
          "duration": 0.1680079642857173,
          "durationTicks": 334,
          "midi": 62,
          "name": "D4",
          "ticks": 36100,
          "time": 18.158944642857143,
          "velocity": 0.6929133858267716
        },
        {
          "duration": 0.06338024999999803,
          "durationTicks": 126,
          "midi": 62,
          "name": "D4",
          "ticks": 38747,
          "time": 19.49043291071429,
          "velocity": 0.8188976377952756
        },
        {
          "duration": 0.08098587499999965,
          "durationTicks": 161,
          "midi": 65,
          "name": "F4",
          "ticks": 38873,
          "time": 19.553813160714288,
          "velocity": 0.7480314960629921
        },
        {
          "duration": 0.06086516071428605,
          "durationTicks": 121,
          "midi": 67,
          "name": "G4",
          "ticks": 39034,
          "time": 19.634799035714288,
          "velocity": 0.7874015748031497
        },
        {
          "duration": 0.07092551785714107,
          "durationTicks": 141,
          "midi": 69,
          "name": "A4",
          "ticks": 39155,
          "time": 19.695664196428574,
          "velocity": 0.84251968503937
        },
        {
          "duration": 0.46126737500000203,
          "durationTicks": 917,
          "midi": 72,
          "name": "C5",
          "ticks": 39298,
          "time": 19.76759575,
          "velocity": 0.889763779527559
        },
        {
          "duration": 0.10110658928571326,
          "durationTicks": 201,
          "midi": 74,
          "name": "D5",
          "ticks": 40335,
          "time": 20.289225267857148,
          "velocity": 0.8346456692913385
        },
        {
          "duration": 0.08299794642856995,
          "durationTicks": 165,
          "midi": 72,
          "name": "C5",
          "ticks": 40536,
          "time": 20.39033185714286,
          "velocity": 0.84251968503937
        },
        {
          "duration": 0.15442648214285626,
          "durationTicks": 307,
          "midi": 74,
          "name": "D5",
          "ticks": 40788,
          "time": 20.51709235714286,
          "velocity": 0.8346456692913385
        },
        {
          "duration": 0.42907423214285245,
          "durationTicks": 853,
          "midi": 69,
          "name": "A4",
          "ticks": 41221,
          "time": 20.73489908928572,
          "velocity": 0.7716535433070866
        },
        {
          "duration": 0.06941646428571602,
          "durationTicks": 138,
          "midi": 72,
          "name": "C5",
          "ticks": 42074,
          "time": 21.16397332142857,
          "velocity": 0.8346456692913385
        },
        {
          "duration": 0.06338025000000158,
          "durationTicks": 126,
          "midi": 69,
          "name": "A4",
          "ticks": 42212,
          "time": 21.233389785714287,
          "velocity": 0.7637795275590551
        },
        {
          "duration": 0.0588530892857122,
          "durationTicks": 117,
          "midi": 67,
          "name": "G4",
          "ticks": 42338,
          "time": 21.29677003571429,
          "velocity": 0.8110236220472441
        },
        {
          "duration": 0.06941646428571246,
          "durationTicks": 138,
          "midi": 65,
          "name": "F4",
          "ticks": 42493,
          "time": 21.37473780357143,
          "velocity": 0.7795275590551181
        },
        {
          "duration": 0.09708244642857267,
          "durationTicks": 193,
          "midi": 62,
          "name": "D4",
          "ticks": 42631,
          "time": 21.444154267857144,
          "velocity": 0.6850393700787402
        },
        {
          "duration": 0.08400398214285687,
          "durationTicks": 167,
          "midi": 62,
          "name": "D4",
          "ticks": 45319,
          "time": 22.796266267857145,
          "velocity": 0.7007874015748031
        },
        {
          "duration": 0.08400398214286042,
          "durationTicks": 167,
          "midi": 65,
          "name": "F4",
          "ticks": 45532,
          "time": 22.903409071428573,
          "velocity": 0.7637795275590551
        },
        {
          "duration": 0.06086516071428605,
          "durationTicks": 121,
          "midi": 67,
          "name": "G4",
          "ticks": 45699,
          "time": 22.987413053571434,
          "velocity": 0.7716535433070866
        },
        {
          "duration": 0.12776653571428298,
          "durationTicks": 254,
          "midi": 69,
          "name": "A4",
          "ticks": 45820,
          "time": 23.04827821428572,
          "velocity": 0.7716535433070866
        },
        {
          "duration": 0.7892350178571412,
          "durationTicks": 1569,
          "midi": 72,
          "name": "C5",
          "ticks": 46119,
          "time": 23.19868055357143,
          "velocity": 0.8661417322834646
        },
        {
          "duration": 0.08098587499999965,
          "durationTicks": 161,
          "midi": 69,
          "name": "A4",
          "ticks": 47688,
          "time": 23.987915571428573,
          "velocity": 0.7480314960629921
        },
        {
          "duration": 0.10362167857143234,
          "durationTicks": 206,
          "midi": 72,
          "name": "C5",
          "ticks": 47849,
          "time": 24.068901446428573,
          "velocity": 0.8503937007874016
        },
        {
          "duration": 0.365693982142858,
          "durationTicks": 727,
          "midi": 69,
          "name": "A4",
          "ticks": 48125,
          "time": 24.207734375,
          "velocity": 0.8188976377952756
        },
        {
          "duration": 0.08953717857142962,
          "durationTicks": 178,
          "midi": 72,
          "name": "C5",
          "ticks": 48852,
          "time": 24.57342835714286,
          "velocity": 0.8346456692913385
        },
        {
          "duration": 0.1680079642857102,
          "durationTicks": 334,
          "midi": 69,
          "name": "A4",
          "ticks": 49035,
          "time": 24.665480625000004,
          "velocity": 0.7874015748031497
        },
        {
          "duration": 0.07545267857143045,
          "durationTicks": 150,
          "midi": 67,
          "name": "G4",
          "ticks": 49369,
          "time": 24.833488589285714,
          "velocity": 0.8031496062992126
        },
        {
          "duration": 0.08199191071428658,
          "durationTicks": 163,
          "midi": 65,
          "name": "F4",
          "ticks": 49519,
          "time": 24.908941267857145,
          "velocity": 0.8031496062992126
        },
        {
          "duration": 0.19416489285714178,
          "durationTicks": 386,
          "midi": 62,
          "name": "D4",
          "ticks": 49731,
          "time": 25.01558105357143,
          "velocity": 0.7716535433070866
        },
        {
          "duration": 0.12625748214285792,
          "durationTicks": 251,
          "midi": 70,
          "name": "A#4",
          "ticks": 51524,
          "time": 25.917492071428573,
          "velocity": 0.8267716535433071
        },
        {
          "duration": 0.5689131964285714,
          "durationTicks": 1131,
          "midi": 69,
          "name": "A4",
          "ticks": 51788,
          "time": 26.05028878571429,
          "velocity": 0.8188976377952756
        },
        {
          "duration": 0.11569410714285766,
          "durationTicks": 230,
          "midi": 64,
          "name": "E4",
          "ticks": 53063,
          "time": 26.69163655357143,
          "velocity": 0.8267716535433071
        },
        {
          "duration": 0.12173032142856854,
          "durationTicks": 242,
          "midi": 67,
          "name": "G4",
          "ticks": 53293,
          "time": 26.80733066071429,
          "velocity": 0.7795275590551181
        },
        {
          "duration": 0.09557339285714761,
          "durationTicks": 190,
          "midi": 64,
          "name": "E4",
          "ticks": 53535,
          "time": 26.929060982142857,
          "velocity": 0.7637795275590551
        },
        {
          "duration": 0.20573430357142541,
          "durationTicks": 409,
          "midi": 65,
          "name": "F4",
          "ticks": 53725,
          "time": 27.024634375000005,
          "velocity": 0.7716535433070866
        },
        {
          "duration": 0.10110658928571681,
          "durationTicks": 201,
          "midi": 57,
          "name": "A3",
          "ticks": 54134,
          "time": 27.23036867857143,
          "velocity": 0.7007874015748031
        },
        {
          "duration": 0.09255528571428329,
          "durationTicks": 184,
          "midi": 59,
          "name": "B3",
          "ticks": 54335,
          "time": 27.331475267857147,
          "velocity": 0.7007874015748031
        },
        {
          "duration": 0.0809858750000032,
          "durationTicks": 161,
          "midi": 61,
          "name": "C#4",
          "ticks": 54519,
          "time": 27.42403055357143,
          "velocity": 0.8346456692913385
        },
        {
          "duration": 0.08853114285713914,
          "durationTicks": 176,
          "midi": 62,
          "name": "D4",
          "ticks": 54680,
          "time": 27.505016428571434,
          "velocity": 0.6929133858267716
        },
        {
          "duration": 0.05482894642857161,
          "durationTicks": 109,
          "midi": 64,
          "name": "E4",
          "ticks": 54887,
          "time": 27.609141125000004,
          "velocity": 0.8267716535433071
        },
        {
          "duration": 0.09859149999999772,
          "durationTicks": 196,
          "midi": 65,
          "name": "F4",
          "ticks": 55065,
          "time": 27.698678303571434,
          "velocity": 0.7795275590551181
        },
        {
          "duration": 0.30734391071428746,
          "durationTicks": 611,
          "midi": 62,
          "name": "D4",
          "ticks": 55261,
          "time": 27.79726980357143,
          "velocity": 0.7244094488188977
        },
        {
          "duration": 0.09909451785714296,
          "durationTicks": 197,
          "midi": 57,
          "name": "A3",
          "ticks": 55872,
          "time": 28.10461371428572,
          "velocity": 0.7480314960629921
        },
        {
          "duration": 0.09456735714286424,
          "durationTicks": 188,
          "midi": 55,
          "name": "G3",
          "ticks": 56113,
          "time": 28.225841017857142,
          "velocity": 0.7007874015748031
        },
        {
          "duration": 0.08953717857142607,
          "durationTicks": 178,
          "midi": 53,
          "name": "F3",
          "ticks": 56331,
          "time": 28.33549891071429,
          "velocity": 0.7086614173228346
        },
        {
          "duration": 0.07142853571428276,
          "durationTicks": 142,
          "midi": 56,
          "name": "G#3",
          "ticks": 58333,
          "time": 29.342540660714292,
          "velocity": 0.6850393700787402
        },
        {
          "duration": 0.07394362500000184,
          "durationTicks": 147,
          "midi": 58,
          "name": "A#3",
          "ticks": 58475,
          "time": 29.413969196428575,
          "velocity": 0.7244094488188977
        },
        {
          "duration": 0.10362167857142524,
          "durationTicks": 206,
          "midi": 59,
          "name": "B3",
          "ticks": 58648,
          "time": 29.500991285714292,
          "velocity": 0.6929133858267716
        },
        {
          "duration": 0.10010055357142633,
          "durationTicks": 199,
          "midi": 60,
          "name": "C4",
          "ticks": 58854,
          "time": 29.604612964285717,
          "velocity": 0.7637795275590551
        },
        {
          "duration": 0.0995975357142882,
          "durationTicks": 198,
          "midi": 63,
          "name": "D#4",
          "ticks": 59080,
          "time": 29.718295,
          "velocity": 0.8110236220472441
        },
        {
          "duration": 0.07243457142856968,
          "durationTicks": 144,
          "midi": 66,
          "name": "F#4",
          "ticks": 59278,
          "time": 29.81789253571429,
          "velocity": 0.7401574803149606
        },
        {
          "duration": 0.04577462499999996,
          "durationTicks": 91,
          "midi": 68,
          "name": "G#4",
          "ticks": 59451,
          "time": 29.904914625000007,
          "velocity": 0.8110236220472441
        },
        {
          "duration": 0.04376255357142611,
          "durationTicks": 87,
          "midi": 70,
          "name": "A#4",
          "ticks": 59608,
          "time": 29.983888428571433,
          "velocity": 0.8582677165354331
        },
        {
          "duration": 0.8194160892857099,
          "durationTicks": 1629,
          "midi": 72,
          "name": "C5",
          "ticks": 59716,
          "time": 30.038214357142863,
          "velocity": 0.8582677165354331
        },
        {
          "duration": 0.05130782142857626,
          "durationTicks": 102,
          "midi": 68,
          "name": "G#4",
          "ticks": 61390,
          "time": 30.880266250000002,
          "velocity": 0.8110236220472441
        },
        {
          "duration": 0.0995975357142811,
          "durationTicks": 198,
          "midi": 72,
          "name": "C5",
          "ticks": 61584,
          "time": 30.97785171428572,
          "velocity": 0.7952755905511811
        },
        {
          "duration": 0.8998989464285749,
          "durationTicks": 1789,
          "midi": 70,
          "name": "A#4",
          "ticks": 61782,
          "time": 31.07744925,
          "velocity": 0.8818897637795275
        },
        {
          "duration": 0.05583498214285498,
          "durationTicks": 111,
          "midi": 66,
          "name": "F#4",
          "ticks": 63611,
          "time": 31.99746891071429,
          "velocity": 0.7401574803149606
        },
        {
          "duration": 0.08601605357142716,
          "durationTicks": 171,
          "midi": 70,
          "name": "A#4",
          "ticks": 63784,
          "time": 32.08449100000001,
          "velocity": 0.7874015748031497
        },
        {
          "duration": 0.37323924999999747,
          "durationTicks": 742,
          "midi": 68,
          "name": "G#4",
          "ticks": 63966,
          "time": 32.17604025000001,
          "velocity": 0.7716535433070866
        },
        {
          "duration": 0.06891344642857433,
          "durationTicks": 137,
          "midi": 69,
          "name": "A4",
          "ticks": 64735,
          "time": 32.56286098214286,
          "velocity": 0.7559055118110236
        },
        {
          "duration": 0.06539232142857543,
          "durationTicks": 130,
          "midi": 72,
          "name": "C5",
          "ticks": 64872,
          "time": 32.63177442857143,
          "velocity": 0.8582677165354331
        },
        {
          "duration": 0.06388326785713616,
          "durationTicks": 127,
          "midi": 70,
          "name": "A#4",
          "ticks": 65034,
          "time": 32.71326332142858,
          "velocity": 0.7952755905511811
        },
        {
          "duration": 0.06488930357143374,
          "durationTicks": 129,
          "midi": 64,
          "name": "E4",
          "ticks": 65188,
          "time": 32.790728071428575,
          "velocity": 0.7716535433070866
        },
        {
          "duration": 0.07042249999999228,
          "durationTicks": 140,
          "midi": 65,
          "name": "F4",
          "ticks": 65317,
          "time": 32.85561737500001,
          "velocity": 0.7716535433070866
        },
        {
          "duration": 0.07142853571428276,
          "durationTicks": 142,
          "midi": 68,
          "name": "G#4",
          "ticks": 65462,
          "time": 32.928554964285716,
          "velocity": 0.7952755905511811
        },
        {
          "duration": 0.06790741071429096,
          "durationTicks": 135,
          "midi": 66,
          "name": "F#4",
          "ticks": 65604,
          "time": 32.9999835,
          "velocity": 0.7637795275590551
        },
        {
          "duration": 0.048792732142857176,
          "durationTicks": 97,
          "midi": 61,
          "name": "C#4",
          "ticks": 65745,
          "time": 33.07090901785715,
          "velocity": 0.7716535433070866
        },
        {
          "duration": 0.06438628571428495,
          "durationTicks": 128,
          "midi": 62,
          "name": "D4",
          "ticks": 65842,
          "time": 33.119701750000004,
          "velocity": 0.7559055118110236
        },
        {
          "duration": 0.06690137500000759,
          "durationTicks": 133,
          "midi": 65,
          "name": "F4",
          "ticks": 65992,
          "time": 33.19515442857143,
          "velocity": 0.7795275590551181
        },
        {
          "duration": 0.0774647499999972,
          "durationTicks": 154,
          "midi": 63,
          "name": "D#4",
          "ticks": 66125,
          "time": 33.262055803571435,
          "velocity": 0.7559055118110236
        },
        {
          "duration": 0.06891344642856723,
          "durationTicks": 137,
          "midi": 56,
          "name": "G#3",
          "ticks": 66302,
          "time": 33.35108996428572,
          "velocity": 0.7165354330708661
        },
        {
          "duration": 0.048792732142857176,
          "durationTicks": 97,
          "midi": 57,
          "name": "A3",
          "ticks": 66455,
          "time": 33.428051696428575,
          "velocity": 0.7007874015748031
        },
        {
          "duration": 0.09004019642856775,
          "durationTicks": 179,
          "midi": 60,
          "name": "C4",
          "ticks": 66632,
          "time": 33.51708585714287,
          "velocity": 0.8267716535433071
        },
        {
          "duration": 0.08249492857142826,
          "durationTicks": 164,
          "midi": 56,
          "name": "G#3",
          "ticks": 66892,
          "time": 33.6478705,
          "velocity": 0.7007874015748031
        },
        {
          "duration": 0.09054321428571654,
          "durationTicks": 180,
          "midi": 57,
          "name": "A3",
          "ticks": 67068,
          "time": 33.736401642857146,
          "velocity": 0.7165354330708661
        },
        {
          "duration": 0.07494966071428166,
          "durationTicks": 149,
          "midi": 60,
          "name": "C4",
          "ticks": 67248,
          "time": 33.82694485714286,
          "velocity": 0.7874015748031497
        },
        {
          "duration": 0.5030178571428578,
          "durationTicks": 1000,
          "midi": 58,
          "name": "A#3",
          "ticks": 67397,
          "time": 33.901894517857144,
          "velocity": 0.7165354330708661
        },
        {
          "duration": 0.09356132142857376,
          "durationTicks": 186,
          "midi": 54,
          "name": "F#3",
          "ticks": 68593,
          "time": 34.503503875,
          "velocity": 0.7322834645669292
        },
        {
          "duration": 0.11217298214285876,
          "durationTicks": 223,
          "midi": 53,
          "name": "F3",
          "ticks": 68779,
          "time": 34.597065196428574,
          "velocity": 0.7086614173228346
        },
        {
          "duration": 0.11016091071428491,
          "durationTicks": 219,
          "midi": 51,
          "name": "D#3",
          "ticks": 69014,
          "time": 34.71527439285715,
          "velocity": 0.7322834645669292
        },
        {
          "duration": 0.12072428571428873,
          "durationTicks": 240,
          "midi": 56,
          "name": "G#3",
          "ticks": 69233,
          "time": 34.82543530357143,
          "velocity": 0.7716535433070866
        },
        {
          "duration": 0.09456735714286424,
          "durationTicks": 188,
          "midi": 56,
          "name": "G#3",
          "ticks": 71151,
          "time": 35.79022355357143,
          "velocity": 0.7637795275590551
        },
        {
          "duration": 0.08601605357142716,
          "durationTicks": 171,
          "midi": 58,
          "name": "A#3",
          "ticks": 71414,
          "time": 35.922517250000006,
          "velocity": 0.7559055118110236
        },
        {
          "duration": 0.21478862499999707,
          "durationTicks": 427,
          "midi": 60,
          "name": "C4",
          "ticks": 71591,
          "time": 36.01155141071429,
          "velocity": 0.7952755905511811
        },
        {
          "duration": 0.13832991071429035,
          "durationTicks": 275,
          "midi": 56,
          "name": "G#3",
          "ticks": 72045,
          "time": 36.23992151785715,
          "velocity": 0.6377952755905512
        },
        {
          "duration": 0.21830975000000308,
          "durationTicks": 434,
          "midi": 61,
          "name": "C#4",
          "ticks": 72368,
          "time": 36.40239628571429,
          "velocity": 0.8031496062992126
        },
        {
          "duration": 0.11619712499999935,
          "durationTicks": 231,
          "midi": 58,
          "name": "A#3",
          "ticks": 72802,
          "time": 36.62070603571429,
          "velocity": 0.6929133858267716
        },
        {
          "duration": 0.24597573214285973,
          "durationTicks": 489,
          "midi": 62,
          "name": "D4",
          "ticks": 73033,
          "time": 36.73690316071429,
          "velocity": 0.8346456692913385
        },
        {
          "duration": 0.10563375000000264,
          "durationTicks": 210,
          "midi": 58,
          "name": "A#3",
          "ticks": 73531,
          "time": 36.98740605357143,
          "velocity": 0.6614173228346457
        },
        {
          "duration": 0.3309857499999964,
          "durationTicks": 658,
          "midi": 63,
          "name": "D#4",
          "ticks": 73741,
          "time": 37.093039803571436,
          "velocity": 0.8503937007874016
        },
        {
          "duration": 0.11317901785714213,
          "durationTicks": 225,
          "midi": 65,
          "name": "F4",
          "ticks": 74539,
          "time": 37.49444805357143,
          "velocity": 0.7716535433070866
        },
        {
          "duration": 0.1509053571428538,
          "durationTicks": 300,
          "midi": 66,
          "name": "F#4",
          "ticks": 74854,
          "time": 37.65289867857143,
          "velocity": 0.7952755905511811
        },
        {
          "duration": 0.20171016071428483,
          "durationTicks": 401,
          "midi": 65,
          "name": "F4",
          "ticks": 75177,
          "time": 37.81537344642857,
          "velocity": 0.7322834645669292
        },
        {
          "duration": 0.1478872500000037,
          "durationTicks": 294,
          "midi": 66,
          "name": "F#4",
          "ticks": 75578,
          "time": 38.01708360714286,
          "velocity": 0.7874015748031497
        },
        {
          "duration": 0.19366187499999654,
          "durationTicks": 385,
          "midi": 70,
          "name": "A#4",
          "ticks": 75974,
          "time": 38.216278678571435,
          "velocity": 0.7874015748031497
        },
        {
          "duration": 0.22032182142856982,
          "durationTicks": 438,
          "midi": 73,
          "name": "C#5",
          "ticks": 76452,
          "time": 38.45672121428572,
          "velocity": 0.7637795275590551
        },
        {
          "duration": 0.12072428571428162,
          "durationTicks": 240,
          "midi": 77,
          "name": "F5",
          "ticks": 76890,
          "time": 38.67704303571429,
          "velocity": 0.8346456692913385
        },
        {
          "duration": 0.24245460714286082,
          "durationTicks": 482,
          "midi": 77,
          "name": "F5",
          "ticks": 77367,
          "time": 38.91698255357143,
          "velocity": 0.6692913385826772
        },
        {
          "duration": 0.10462771428571926,
          "durationTicks": 208,
          "midi": 75,
          "name": "D#5",
          "ticks": 77857,
          "time": 39.16346130357143,
          "velocity": 0.8346456692913385
        },
        {
          "duration": 0.5191144285714344,
          "durationTicks": 1032,
          "midi": 75,
          "name": "D#5",
          "ticks": 78438,
          "time": 39.45571467857143,
          "velocity": 0.8267716535433071
        },
        {
          "duration": 0.14486914285714647,
          "durationTicks": 288,
          "midi": 73,
          "name": "C#5",
          "ticks": 79712,
          "time": 40.09655942857143,
          "velocity": 0.8346456692913385
        },
        {
          "duration": 0.16851098214285543,
          "durationTicks": 335,
          "midi": 72,
          "name": "C5",
          "ticks": 80000,
          "time": 40.24142857142858,
          "velocity": 0.8267716535433071
        },
        {
          "duration": 0.1368208571428653,
          "durationTicks": 272,
          "midi": 68,
          "name": "G#4",
          "ticks": 80455,
          "time": 40.47030169642857,
          "velocity": 0.7086614173228346
        },
        {
          "duration": 0.051810839285714394,
          "durationTicks": 103,
          "midi": 69,
          "name": "A4",
          "ticks": 80783,
          "time": 40.635291553571435,
          "velocity": 0.7874015748031497
        },
        {
          "duration": 0.05784705357142883,
          "durationTicks": 115,
          "midi": 71,
          "name": "B4",
          "ticks": 80903,
          "time": 40.69565369642858,
          "velocity": 0.8582677165354331
        },
        {
          "duration": 0.09859150000000483,
          "durationTicks": 196,
          "midi": 70,
          "name": "A#4",
          "ticks": 81046,
          "time": 40.76758525,
          "velocity": 0.8267716535433071
        },
        {
          "duration": 0.10362167857142879,
          "durationTicks": 206,
          "midi": 66,
          "name": "F#4",
          "ticks": 81242,
          "time": 40.86617675000001,
          "velocity": 0.7716535433070866
        },
        {
          "duration": 0.08148889285714489,
          "durationTicks": 162,
          "midi": 63,
          "name": "D#4",
          "ticks": 81581,
          "time": 41.03669980357143,
          "velocity": 0.8267716535433071
        },
        {
          "duration": 0.08953717857142607,
          "durationTicks": 178,
          "midi": 57,
          "name": "A3",
          "ticks": 84678,
          "time": 42.59454610714287,
          "velocity": 0.8031496062992126
        },
        {
          "duration": 0.0955733928571405,
          "durationTicks": 190,
          "midi": 59,
          "name": "B3",
          "ticks": 84856,
          "time": 42.684083285714294,
          "velocity": 0.7716535433070866
        },
        {
          "duration": 0.0734406071428566,
          "durationTicks": 146,
          "midi": 61,
          "name": "C#4",
          "ticks": 85046,
          "time": 42.779656678571435,
          "velocity": 0.8346456692913385
        },
        {
          "duration": 0.9547278928571359,
          "durationTicks": 1898,
          "midi": 62,
          "name": "D4",
          "ticks": 85213,
          "time": 42.863660660714295,
          "velocity": 0.8976377952755905
        },
        {
          "duration": 0.11317901785714923,
          "durationTicks": 225,
          "midi": 61,
          "name": "C#4",
          "ticks": 87111,
          "time": 43.81838855357143,
          "velocity": 0.8346456692913385
        },
        {
          "duration": 0.10865185714285275,
          "durationTicks": 216,
          "midi": 59,
          "name": "B3",
          "ticks": 87336,
          "time": 43.93156757142858,
          "velocity": 0.7244094488188977
        },
        {
          "duration": 0.10865185714285275,
          "durationTicks": 216,
          "midi": 58,
          "name": "A#3",
          "ticks": 87560,
          "time": 44.04424357142858,
          "velocity": 0.8110236220472441
        },
        {
          "duration": 0.12122730357143041,
          "durationTicks": 241,
          "midi": 57,
          "name": "A3",
          "ticks": 87807,
          "time": 44.16848898214286,
          "velocity": 0.8110236220472441
        },
        {
          "duration": 0.1217303214285721,
          "durationTicks": 242,
          "midi": 53,
          "name": "F3",
          "ticks": 88065,
          "time": 44.298267589285715,
          "velocity": 0.7716535433070866
        },
        {
          "duration": 0.09255528571429039,
          "durationTicks": 184,
          "midi": 52,
          "name": "E3",
          "ticks": 88307,
          "time": 44.41999791071429,
          "velocity": 0.7244094488188977
        },
        {
          "duration": 0.10110658928571326,
          "durationTicks": 201,
          "midi": 50,
          "name": "D3",
          "ticks": 88491,
          "time": 44.51255319642858,
          "velocity": 0.6614173228346457
        },
        {
          "duration": 0.17907435714285924,
          "durationTicks": 356,
          "midi": 53,
          "name": "F3",
          "ticks": 88692,
          "time": 44.61365978571429,
          "velocity": 0.8188976377952756
        },
        {
          "duration": 0.11569410714285056,
          "durationTicks": 230,
          "midi": 57,
          "name": "A3",
          "ticks": 90405,
          "time": 45.47532937500001,
          "velocity": 0.8503937007874016
        },
        {
          "duration": 0.0995975357142882,
          "durationTicks": 198,
          "midi": 59,
          "name": "B3",
          "ticks": 90635,
          "time": 45.59102348214286,
          "velocity": 0.7559055118110236
        },
        {
          "duration": 0.09456735714286424,
          "durationTicks": 188,
          "midi": 61,
          "name": "C#4",
          "ticks": 90836,
          "time": 45.69213007142857,
          "velocity": 0.8661417322834646
        },
        {
          "duration": 0.5714282857142905,
          "durationTicks": 1136,
          "midi": 62,
          "name": "D4",
          "ticks": 91037,
          "time": 45.793236660714285,
          "velocity": 0.8976377952755905
        },
        {
          "duration": 0.12424541071428763,
          "durationTicks": 247,
          "midi": 61,
          "name": "C#4",
          "ticks": 92173,
          "time": 46.364664946428576,
          "velocity": 0.8818897637795275
        },
        {
          "duration": 0.10110658928571326,
          "durationTicks": 201,
          "midi": 59,
          "name": "B3",
          "ticks": 92430,
          "time": 46.493940535714295,
          "velocity": 0.7795275590551181
        },
        {
          "duration": 0.10462771428571216,
          "durationTicks": 208,
          "midi": 58,
          "name": "A#3",
          "ticks": 92631,
          "time": 46.59504712500001,
          "velocity": 0.8267716535433071
        },
        {
          "duration": 0.10412469642857047,
          "durationTicks": 207,
          "midi": 57,
          "name": "A3",
          "ticks": 92851,
          "time": 46.705711053571434,
          "velocity": 0.8110236220472441
        },
        {
          "duration": 0.09255528571429039,
          "durationTicks": 184,
          "midi": 53,
          "name": "F3",
          "ticks": 93063,
          "time": 46.81235083928572,
          "velocity": 0.7559055118110236
        },
        {
          "duration": 0.10110658928571326,
          "durationTicks": 201,
          "midi": 52,
          "name": "E3",
          "ticks": 93247,
          "time": 46.90490612500001,
          "velocity": 0.7480314960629921
        },
        {
          "duration": 0.09255528571428329,
          "durationTicks": 184,
          "midi": 50,
          "name": "D3",
          "ticks": 93448,
          "time": 47.006012714285724,
          "velocity": 0.7795275590551181
        },
        {
          "duration": 0.10010055357142278,
          "durationTicks": 199,
          "midi": 53,
          "name": "F3",
          "ticks": 93632,
          "time": 47.09856800000001,
          "velocity": 0.8110236220472441
        },
        {
          "duration": 0.10462771428571216,
          "durationTicks": 208,
          "midi": 55,
          "name": "G3",
          "ticks": 93856,
          "time": 47.21124400000001,
          "velocity": 0.7007874015748031
        },
        {
          "duration": 0.061871196428562314,
          "durationTicks": 123,
          "midi": 57,
          "name": "A3",
          "ticks": 94096,
          "time": 47.3319682857143,
          "velocity": 0.6929133858267716
        },
        {
          "duration": 0.08702208928571764,
          "durationTicks": 173,
          "midi": 59,
          "name": "B3",
          "ticks": 94276,
          "time": 47.422511500000006,
          "velocity": 0.8031496062992126
        },
        {
          "duration": 0.09104623214285112,
          "durationTicks": 181,
          "midi": 61,
          "name": "C#4",
          "ticks": 94498,
          "time": 47.53418146428572,
          "velocity": 0.889763779527559
        },
        {
          "duration": 0.05080480357143102,
          "durationTicks": 101,
          "midi": 62,
          "name": "D4",
          "ticks": 94700,
          "time": 47.63579107142858,
          "velocity": 0.9448818897637795
        },
        {
          "duration": 0.10160960714285494,
          "durationTicks": 202,
          "midi": 64,
          "name": "E4",
          "ticks": 94856,
          "time": 47.714261857142866,
          "velocity": 0.984251968503937
        },
        {
          "duration": 0.08752510714285933,
          "durationTicks": 174,
          "midi": 61,
          "name": "C#4",
          "ticks": 95088,
          "time": 47.83096200000001,
          "velocity": 0.8346456692913385
        },
        {
          "duration": 0.31136805357142805,
          "durationTicks": 619,
          "midi": 62,
          "name": "D4",
          "ticks": 95262,
          "time": 47.918487107142866,
          "velocity": 0.8188976377952756
        },
        {
          "duration": 0.09255528571428329,
          "durationTicks": 184,
          "midi": 57,
          "name": "A3",
          "ticks": 97283,
          "time": 48.93508619642858,
          "velocity": 0.7401574803149606
        },
        {
          "duration": 0.08299794642856995,
          "durationTicks": 165,
          "midi": 59,
          "name": "B3",
          "ticks": 97467,
          "time": 49.02764148214286,
          "velocity": 0.7480314960629921
        },
        {
          "duration": 0.06941646428571602,
          "durationTicks": 138,
          "midi": 61,
          "name": "C#4",
          "ticks": 97674,
          "time": 49.13176617857143,
          "velocity": 0.889763779527559
        },
        {
          "duration": 0.5749494107142894,
          "durationTicks": 1143,
          "midi": 62,
          "name": "D4",
          "ticks": 97812,
          "time": 49.20118264285715,
          "velocity": 0.8976377952755905
        },
        {
          "duration": 0.13380275000000097,
          "durationTicks": 266,
          "midi": 61,
          "name": "C#4",
          "ticks": 98971,
          "time": 49.78418033928572,
          "velocity": 0.889763779527559
        },
        {
          "duration": 0.08601605357142716,
          "durationTicks": 171,
          "midi": 59,
          "name": "B3",
          "ticks": 99237,
          "time": 49.91798308928572,
          "velocity": 0.8031496062992126
        },
        {
          "duration": 0.07696173214286262,
          "durationTicks": 153,
          "midi": 58,
          "name": "A#3",
          "ticks": 99408,
          "time": 50.00399914285715,
          "velocity": 0.8267716535433071
        },
        {
          "duration": 0.12374239285714594,
          "durationTicks": 246,
          "midi": 57,
          "name": "A3",
          "ticks": 99574,
          "time": 50.08750010714286,
          "velocity": 0.8031496062992126
        },
        {
          "duration": 0.09557339285714761,
          "durationTicks": 190,
          "midi": 53,
          "name": "F3",
          "ticks": 99832,
          "time": 50.21727871428572,
          "velocity": 0.7401574803149606
        },
        {
          "duration": 0.08953717857142607,
          "durationTicks": 178,
          "midi": 52,
          "name": "E3",
          "ticks": 100022,
          "time": 50.31285210714287,
          "velocity": 0.7086614173228346
        },
        {
          "duration": 0.07796776785714599,
          "durationTicks": 155,
          "midi": 50,
          "name": "D3",
          "ticks": 100200,
          "time": 50.40238928571429,
          "velocity": 0.6929133858267716
        },
        {
          "duration": 0.09154924999999281,
          "durationTicks": 182,
          "midi": 53,
          "name": "F3",
          "ticks": 100355,
          "time": 50.48035705357144,
          "velocity": 0.7874015748031497
        },
        {
          "duration": 0.08551303571429258,
          "durationTicks": 170,
          "midi": 55,
          "name": "G3",
          "ticks": 100551,
          "time": 50.57894855357143,
          "velocity": 0.7401574803149606
        },
        {
          "duration": 0.0850100178571438,
          "durationTicks": 169,
          "midi": 57,
          "name": "A3",
          "ticks": 100729,
          "time": 50.66848573214286,
          "velocity": 0.7165354330708661
        },
        {
          "duration": 0.09004019642857486,
          "durationTicks": 179,
          "midi": 59,
          "name": "B3",
          "ticks": 100941,
          "time": 50.77512551785715,
          "velocity": 0.7165354330708661
        },
        {
          "duration": 0.08802812500000101,
          "durationTicks": 175,
          "midi": 61,
          "name": "C#4",
          "ticks": 101130,
          "time": 50.87019589285715,
          "velocity": 0.8740157480314961
        },
        {
          "duration": 0.08651907142856174,
          "durationTicks": 172,
          "midi": 62,
          "name": "D4",
          "ticks": 101319,
          "time": 50.96526626785715,
          "velocity": 0.8740157480314961
        },
        {
          "duration": 0.11317901785714923,
          "durationTicks": 225,
          "midi": 64,
          "name": "E4",
          "ticks": 101514,
          "time": 51.06335475,
          "velocity": 0.984251968503937
        },
        {
          "duration": 0.08853114285713559,
          "durationTicks": 176,
          "midi": 61,
          "name": "C#4",
          "ticks": 101739,
          "time": 51.17653376785715,
          "velocity": 0.8031496062992126
        },
        {
          "duration": 0.11468807142857429,
          "durationTicks": 228,
          "midi": 62,
          "name": "D4",
          "ticks": 101935,
          "time": 51.27512526785715,
          "velocity": 0.8582677165354331
        },
        {
          "duration": 0.1106639285714266,
          "durationTicks": 220,
          "midi": 65,
          "name": "F4",
          "ticks": 102206,
          "time": 51.411443107142865,
          "velocity": 0.7322834645669292
        },
        {
          "duration": 0.13329973214285928,
          "durationTicks": 265,
          "midi": 69,
          "name": "A4",
          "ticks": 102499,
          "time": 51.55882733928572,
          "velocity": 0.6062992125984252
        },
        {
          "duration": 0.0809858749999961,
          "durationTicks": 161,
          "midi": 71,
          "name": "B4",
          "ticks": 102764,
          "time": 51.69212707142858,
          "velocity": 0.7795275590551181
        },
        {
          "duration": 0.15643855357143366,
          "durationTicks": 311,
          "midi": 76,
          "name": "E5",
          "ticks": 102925,
          "time": 51.773112946428576,
          "velocity": 0.9448818897637795
        },
        {
          "duration": 0.11217298214285876,
          "durationTicks": 223,
          "midi": 57,
          "name": "A3",
          "ticks": 104124,
          "time": 52.37623135714286,
          "velocity": 0.7322834645669292
        },
        {
          "duration": 0.10362167857142879,
          "durationTicks": 206,
          "midi": 59,
          "name": "B3",
          "ticks": 104347,
          "time": 52.48840433928572,
          "velocity": 0.7244094488188977
        },
        {
          "duration": 0.09104623214285112,
          "durationTicks": 181,
          "midi": 61,
          "name": "C#4",
          "ticks": 104569,
          "time": 52.60007430357144,
          "velocity": 0.8188976377952756
        },
        {
          "duration": 0.09758546428572146,
          "durationTicks": 194,
          "midi": 62,
          "name": "D4",
          "ticks": 104783,
          "time": 52.707720125,
          "velocity": 0.8188976377952756
        },
        {
          "duration": 0.11921523214285656,
          "durationTicks": 237,
          "midi": 64,
          "name": "E4",
          "ticks": 104977,
          "time": 52.80530558928572,
          "velocity": 0.9291338582677166
        },
        {
          "duration": 0.0955733928571405,
          "durationTicks": 190,
          "midi": 61,
          "name": "C#4",
          "ticks": 105232,
          "time": 52.93357514285715,
          "velocity": 0.7795275590551181
        },
        {
          "duration": 0.12474842857142932,
          "durationTicks": 248,
          "midi": 62,
          "name": "D4",
          "ticks": 105422,
          "time": 53.02914853571429,
          "velocity": 0.8267716535433071
        },
        {
          "duration": 0.10462771428571216,
          "durationTicks": 208,
          "midi": 64,
          "name": "E4",
          "ticks": 105701,
          "time": 53.16949051785715,
          "velocity": 0.8503937007874016
        },
        {
          "duration": 0.09708244642857267,
          "durationTicks": 193,
          "midi": 65,
          "name": "F4",
          "ticks": 105909,
          "time": 53.27411823214286,
          "velocity": 0.7401574803149606
        },
        {
          "duration": 0.05684101785714546,
          "durationTicks": 113,
          "midi": 67,
          "name": "G4",
          "ticks": 106102,
          "time": 53.371200678571434,
          "velocity": 0.7952755905511811
        },
        {
          "duration": 1.1876251607142905,
          "durationTicks": 2361,
          "midi": 69,
          "name": "A4",
          "ticks": 106223,
          "time": 53.43206583928572,
          "velocity": 0.8976377952755905
        },
        {
          "duration": 0.04577462500000706,
          "durationTicks": 91,
          "midi": 73,
          "name": "C#5",
          "ticks": 108892,
          "time": 54.774620500000005,
          "velocity": 0.8661417322834646
        },
        {
          "duration": 0.05835007142857762,
          "durationTicks": 116,
          "midi": 74,
          "name": "D5",
          "ticks": 109013,
          "time": 54.83548566071429,
          "velocity": 0.8188976377952756
        },
        {
          "duration": 0.05684101785713125,
          "durationTicks": 113,
          "midi": 73,
          "name": "C#5",
          "ticks": 109137,
          "time": 54.89785987500001,
          "velocity": 0.84251968503937
        },
        {
          "duration": 0.046277642857155854,
          "durationTicks": 92,
          "midi": 71,
          "name": "B4",
          "ticks": 109250,
          "time": 54.95470089285714,
          "velocity": 0.8188976377952756
        },
        {
          "duration": 0.04376255357142611,
          "durationTicks": 87,
          "midi": 64,
          "name": "E4",
          "ticks": 109387,
          "time": 55.02361433928572,
          "velocity": 1
        },
        {
          "duration": 0.12474842857142932,
          "durationTicks": 248,
          "midi": 65,
          "name": "F4",
          "ticks": 109479,
          "time": 55.06989198214286,
          "velocity": 0.8188976377952756
        },
        {
          "duration": 0.03873237499998794,
          "durationTicks": 77,
          "midi": 61,
          "name": "C#4",
          "ticks": 109803,
          "time": 55.23286976785715,
          "velocity": 0.84251968503937
        },
        {
          "duration": 0.1031186607142871,
          "durationTicks": 205,
          "midi": 62,
          "name": "D4",
          "ticks": 109880,
          "time": 55.27160214285714,
          "velocity": 0.8110236220472441
        },
        {
          "duration": 0.1473842321428549,
          "durationTicks": 293,
          "midi": 62,
          "name": "D4",
          "ticks": 111388,
          "time": 56.03015307142858,
          "velocity": 0.8031496062992126
        },
        {
          "duration": 0.12374239285713884,
          "durationTicks": 246,
          "midi": 65,
          "name": "F4",
          "ticks": 111681,
          "time": 56.177537303571434,
          "velocity": 0.7086614173228346
        },
        {
          "duration": 0.0774647500000043,
          "durationTicks": 154,
          "midi": 69,
          "name": "A4",
          "ticks": 111927,
          "time": 56.30127969642857,
          "velocity": 0.8582677165354331
        },
        {
          "duration": 0.05885308928572641,
          "durationTicks": 117,
          "midi": 73,
          "name": "C#5",
          "ticks": 112190,
          "time": 56.43357339285714,
          "velocity": 0.889763779527559
        },
        {
          "duration": 0.5709252678571417,
          "durationTicks": 1135,
          "midi": 74,
          "name": "D5",
          "ticks": 112307,
          "time": 56.49242648214287,
          "velocity": 0.8818897637795275
        },
        {
          "duration": 0.10060357142857868,
          "durationTicks": 200,
          "midi": 74,
          "name": "D5",
          "ticks": 113790,
          "time": 57.23840196428572,
          "velocity": 0.8031496062992126
        },
        {
          "duration": 0.10060357142857157,
          "durationTicks": 200,
          "midi": 73,
          "name": "C#5",
          "ticks": 114017,
          "time": 57.35258701785715,
          "velocity": 0.8740157480314961
        },
        {
          "duration": 0.13128766071428544,
          "durationTicks": 261,
          "midi": 64,
          "name": "E4",
          "ticks": 114292,
          "time": 57.49091692857144,
          "velocity": 0.968503937007874
        },
        {
          "duration": 0.14436612499999768,
          "durationTicks": 287,
          "midi": 65,
          "name": "F4",
          "ticks": 114567,
          "time": 57.62924683928572,
          "velocity": 0.8267716535433071
        },
        {
          "duration": 0.09356132142858087,
          "durationTicks": 186,
          "midi": 61,
          "name": "C#4",
          "ticks": 114854,
          "time": 57.77361296428572,
          "velocity": 0.84251968503937
        },
        {
          "duration": 0.42505008928571186,
          "durationTicks": 845,
          "midi": 62,
          "name": "D4",
          "ticks": 115040,
          "time": 57.8671742857143,
          "velocity": 0.8661417322834646
        },
        {
          "duration": 0.07947682142856394,
          "durationTicks": 158,
          "midi": 57,
          "name": "A3",
          "ticks": 117262,
          "time": 58.984879964285724,
          "velocity": 0.7874015748031497
        },
        {
          "duration": 0.09356132142858087,
          "durationTicks": 186,
          "midi": 59,
          "name": "B3",
          "ticks": 117420,
          "time": 59.06435678571429,
          "velocity": 0.7795275590551181
        },
        {
          "duration": 0.07696173214285551,
          "durationTicks": 153,
          "midi": 61,
          "name": "C#4",
          "ticks": 117606,
          "time": 59.15791810714287,
          "velocity": 0.8110236220472441
        },
        {
          "duration": 0.0995975357142882,
          "durationTicks": 198,
          "midi": 62,
          "name": "D4",
          "ticks": 117772,
          "time": 59.24141907142858,
          "velocity": 0.84251968503937
        },
        {
          "duration": 0.08752510714285933,
          "durationTicks": 174,
          "midi": 64,
          "name": "E4",
          "ticks": 117970,
          "time": 59.34101660714287,
          "velocity": 0.8582677165354331
        },
        {
          "duration": 0.07545267857142335,
          "durationTicks": 150,
          "midi": 65,
          "name": "F4",
          "ticks": 118144,
          "time": 59.42854171428573,
          "velocity": 0.7401574803149606
        },
        {
          "duration": 0.09507037499999882,
          "durationTicks": 189,
          "midi": 67,
          "name": "G4",
          "ticks": 118294,
          "time": 59.50399439285715,
          "velocity": 0.7007874015748031
        },
        {
          "duration": 0.04074444642856889,
          "durationTicks": 81,
          "midi": 71,
          "name": "B4",
          "ticks": 118622,
          "time": 59.66898425000001,
          "velocity": 0.7637795275590551
        },
        {
          "duration": 0.053319892857146556,
          "durationTicks": 106,
          "midi": 73,
          "name": "C#5",
          "ticks": 118905,
          "time": 59.81133830357143,
          "velocity": 0.07086614173228346
        },
        {
          "duration": 0.1916498035714298,
          "durationTicks": 381,
          "midi": 74,
          "name": "D5",
          "ticks": 119026,
          "time": 59.87220346428572,
          "velocity": 0.07086614173228346
        },
        {
          "duration": 0.6166998928571346,
          "durationTicks": 1226,
          "midi": 74,
          "name": "D5",
          "ticks": 119439,
          "time": 60.079949839285725,
          "velocity": 0.8031496062992126
        },
        {
          "duration": 0.16046269642858135,
          "durationTicks": 319,
          "midi": 68,
          "name": "G#4",
          "ticks": 120665,
          "time": 60.69664973214286,
          "velocity": 0.7401574803149606
        },
        {
          "duration": 0.06086516071427894,
          "durationTicks": 121,
          "midi": 73,
          "name": "C#5",
          "ticks": 120984,
          "time": 60.85711242857144,
          "velocity": 0.8267716535433071
        },
        {
          "duration": 0.07545267857143045,
          "durationTicks": 150,
          "midi": 74,
          "name": "D5",
          "ticks": 121121,
          "time": 60.92602587500001,
          "velocity": 0.7716535433070866
        },
        {
          "duration": 0.06488930357143374,
          "durationTicks": 129,
          "midi": 73,
          "name": "C#5",
          "ticks": 121311,
          "time": 61.02159926785715,
          "velocity": 0.8582677165354331
        },
        {
          "duration": 0.042756517857135634,
          "durationTicks": 85,
          "midi": 69,
          "name": "A4",
          "ticks": 121440,
          "time": 61.08648857142858,
          "velocity": 0.7952755905511811
        },
        {
          "duration": 0.07243457142857324,
          "durationTicks": 144,
          "midi": 64,
          "name": "E4",
          "ticks": 121525,
          "time": 61.12924508928572,
          "velocity": 0.9606299212598425
        },
        {
          "duration": 0.24849082142857526,
          "durationTicks": 494,
          "midi": 65,
          "name": "F4",
          "ticks": 121682,
          "time": 61.20821889285715,
          "velocity": 0.7874015748031497
        },
        {
          "duration": 0.03873237499998794,
          "durationTicks": 77,
          "midi": 61,
          "name": "C#4",
          "ticks": 122216,
          "time": 61.47683042857144,
          "velocity": 0.8267716535433071
        },
        {
          "duration": 0.1509053571428609,
          "durationTicks": 300,
          "midi": 62,
          "name": "D4",
          "ticks": 122293,
          "time": 61.51556280357143,
          "velocity": 0.8188976377952756
        },
        {
          "duration": 0.06388326785713616,
          "durationTicks": 127,
          "midi": 62,
          "name": "D4",
          "ticks": 122625,
          "time": 61.682564732142865,
          "velocity": 0.8503937007874016
        },
        {
          "duration": 0.09406433928571545,
          "durationTicks": 187,
          "midi": 69,
          "name": "A4",
          "ticks": 124324,
          "time": 62.53719207142857,
          "velocity": 0.8110236220472441
        },
        {
          "duration": 0.2027161964285753,
          "durationTicks": 403,
          "midi": 69,
          "name": "A4",
          "ticks": 124822,
          "time": 62.78769496428572,
          "velocity": 0.7401574803149606
        },
        {
          "duration": 0.1836015178571344,
          "durationTicks": 365,
          "midi": 74,
          "name": "D5",
          "ticks": 125296,
          "time": 63.02612542857144,
          "velocity": 0.8267716535433071
        },
        {
          "duration": 0.18511057142858078,
          "durationTicks": 368,
          "midi": 69,
          "name": "A4",
          "ticks": 125661,
          "time": 63.209726946428574,
          "velocity": 0.7637795275590551
        },
        {
          "duration": 0.17102607142856385,
          "durationTicks": 340,
          "midi": 74,
          "name": "D5",
          "ticks": 126106,
          "time": 63.43356989285716,
          "velocity": 0.8582677165354331
        },
        {
          "duration": 0.15694157142856824,
          "durationTicks": 312,
          "midi": 69,
          "name": "A4",
          "ticks": 126446,
          "time": 63.60459596428572,
          "velocity": 0.7559055118110236
        },
        {
          "duration": 0.5568407678571461,
          "durationTicks": 1107,
          "midi": 67,
          "name": "G4",
          "ticks": 127062,
          "time": 63.91445496428572,
          "velocity": 0.8031496062992126
        },
        {
          "duration": 0.12022126785713283,
          "durationTicks": 239,
          "midi": 65,
          "name": "F4",
          "ticks": 128185,
          "time": 64.47934401785716,
          "velocity": 0.7165354330708661
        },
        {
          "duration": 0.17102607142857096,
          "durationTicks": 340,
          "midi": 67,
          "name": "G4",
          "ticks": 128424,
          "time": 64.59956528571429,
          "velocity": 0.8188976377952756
        },
        {
          "duration": 0.07897380357142936,
          "durationTicks": 157,
          "midi": 65,
          "name": "F4",
          "ticks": 128764,
          "time": 64.77059135714286,
          "velocity": 0.7874015748031497
        },
        {
          "duration": 0.13430576785715687,
          "durationTicks": 267,
          "midi": 67,
          "name": "G4",
          "ticks": 129189,
          "time": 64.98437394642858,
          "velocity": 0.8346456692913385
        },
        {
          "duration": 0.0955733928571334,
          "durationTicks": 190,
          "midi": 69,
          "name": "A4",
          "ticks": 129456,
          "time": 65.11867971428573,
          "velocity": 0.84251968503937
        },
        {
          "duration": 0.9220317321428553,
          "durationTicks": 1833,
          "midi": 69,
          "name": "A4",
          "ticks": 131776,
          "time": 66.28568114285716,
          "velocity": 0.8188976377952756
        },
        {
          "duration": 0.103621678571443,
          "durationTicks": 206,
          "midi": 68,
          "name": "G#4",
          "ticks": 133669,
          "time": 67.23789394642857,
          "velocity": 0.8110236220472441
        },
        {
          "duration": 0.1252514464285639,
          "durationTicks": 249,
          "midi": 67,
          "name": "G4",
          "ticks": 133875,
          "time": 67.34151562500001,
          "velocity": 0.7637795275590551
        },
        {
          "duration": 0.12424541071429474,
          "durationTicks": 247,
          "midi": 65,
          "name": "F4",
          "ticks": 134138,
          "time": 67.47380932142858,
          "velocity": 0.7874015748031497
        },
        {
          "duration": 0.08752510714285222,
          "durationTicks": 174,
          "midi": 64,
          "name": "E4",
          "ticks": 134385,
          "time": 67.59805473214287,
          "velocity": 0.8503937007874016
        },
        {
          "duration": 0.09758546428571435,
          "durationTicks": 194,
          "midi": 62,
          "name": "D4",
          "ticks": 134559,
          "time": 67.68557983928572,
          "velocity": 0.7716535433070866
        },
        {
          "duration": 0.10563374999999553,
          "durationTicks": 210,
          "midi": 61,
          "name": "C#4",
          "ticks": 134761,
          "time": 67.78718944642858,
          "velocity": 0.7480314960629921
        },
        {
          "duration": 0.1141850535714184,
          "durationTicks": 227,
          "midi": 59,
          "name": "B3",
          "ticks": 134971,
          "time": 67.89282319642858,
          "velocity": 0.7007874015748031
        },
        {
          "duration": 0.07142853571428986,
          "durationTicks": 142,
          "midi": 57,
          "name": "A3",
          "ticks": 135198,
          "time": 68.00700825,
          "velocity": 0.6850393700787402
        },
        {
          "duration": 0.08400398214286042,
          "durationTicks": 167,
          "midi": 56,
          "name": "G#3",
          "ticks": 135340,
          "time": 68.07843678571429,
          "velocity": 0.7165354330708661
        },
        {
          "duration": 0.09456735714285003,
          "durationTicks": 188,
          "midi": 55,
          "name": "G3",
          "ticks": 135510,
          "time": 68.16394982142859,
          "velocity": 0.6850393700787402
        },
        {
          "duration": 0.12072428571428873,
          "durationTicks": 240,
          "midi": 57,
          "name": "A3",
          "ticks": 135801,
          "time": 68.31032801785715,
          "velocity": 0.6929133858267716
        },
        {
          "duration": 0.11368203571429092,
          "durationTicks": 226,
          "midi": 59,
          "name": "B3",
          "ticks": 136056,
          "time": 68.43859757142857,
          "velocity": 0.6535433070866141
        },
        {
          "duration": 0.10160960714286205,
          "durationTicks": 202,
          "midi": 61,
          "name": "C#4",
          "ticks": 136282,
          "time": 68.55227960714286,
          "velocity": 0.7637795275590551
        },
        {
          "duration": 0.09154924999999992,
          "durationTicks": 182,
          "midi": 62,
          "name": "D4",
          "ticks": 136484,
          "time": 68.65388921428573,
          "velocity": 0.7716535433070866
        },
        {
          "duration": 0.10060357142856446,
          "durationTicks": 200,
          "midi": 64,
          "name": "E4",
          "ticks": 136666,
          "time": 68.74543846428573,
          "velocity": 0.8661417322834646
        },
        {
          "duration": 0.1026156428571312,
          "durationTicks": 204,
          "midi": 61,
          "name": "C#4",
          "ticks": 136908,
          "time": 68.8671687857143,
          "velocity": 0.7559055118110236
        },
        {
          "duration": 0.11116694642856828,
          "durationTicks": 221,
          "midi": 62,
          "name": "D4",
          "ticks": 137126,
          "time": 68.97682667857144,
          "velocity": 0.7559055118110236
        },
        {
          "duration": 0.13832991071429035,
          "durationTicks": 275,
          "midi": 64,
          "name": "E4",
          "ticks": 137389,
          "time": 69.109120375,
          "velocity": 0.7559055118110236
        },
        {
          "duration": 0.08551303571427127,
          "durationTicks": 170,
          "midi": 65,
          "name": "F4",
          "ticks": 137692,
          "time": 69.2615347857143,
          "velocity": 0.7244094488188977
        },
        {
          "duration": 0.0774647500000043,
          "durationTicks": 154,
          "midi": 67,
          "name": "G4",
          "ticks": 137870,
          "time": 69.35107196428572,
          "velocity": 0.7007874015748031
        },
        {
          "duration": 0.37323924999999747,
          "durationTicks": 742,
          "midi": 69,
          "name": "A4",
          "ticks": 138024,
          "time": 69.42853671428573,
          "velocity": 0.7401574803149606
        },
        {
          "duration": 0.09154924999999992,
          "durationTicks": 182,
          "midi": 67,
          "name": "G4",
          "ticks": 138766,
          "time": 69.80177596428572,
          "velocity": 0.7637795275590551
        },
        {
          "duration": 0.09708244642857267,
          "durationTicks": 193,
          "midi": 65,
          "name": "F4",
          "ticks": 139013,
          "time": 69.926021375,
          "velocity": 0.7086614173228346
        },
        {
          "duration": 0.13078464285715086,
          "durationTicks": 260,
          "midi": 69,
          "name": "A4",
          "ticks": 139217,
          "time": 70.02863701785715,
          "velocity": 0.7637795275590551
        },
        {
          "duration": 0.08551303571428548,
          "durationTicks": 170,
          "midi": 60,
          "name": "C4",
          "ticks": 141485,
          "time": 71.16948151785715,
          "velocity": 0.7716535433070866
        },
        {
          "duration": 0.07947682142857104,
          "durationTicks": 158,
          "midi": 65,
          "name": "F4",
          "ticks": 141655,
          "time": 71.25499455357144,
          "velocity": 0.8188976377952756
        },
        {
          "duration": 0.08551303571428548,
          "durationTicks": 170,
          "midi": 67,
          "name": "G4",
          "ticks": 141813,
          "time": 71.334471375,
          "velocity": 0.8740157480314961
        },
        {
          "duration": 0.18158944642857477,
          "durationTicks": 361,
          "midi": 69,
          "name": "A4",
          "ticks": 141983,
          "time": 71.41998441071429,
          "velocity": 0.8503937007874016
        },
        {
          "duration": 0.328470660714288,
          "durationTicks": 653,
          "midi": 62,
          "name": "D4",
          "ticks": 142396,
          "time": 71.62773078571429,
          "velocity": 0.8661417322834646
        },
        {
          "duration": 0.26106626785716003,
          "durationTicks": 519,
          "midi": 64,
          "name": "E4",
          "ticks": 143053,
          "time": 71.95821351785715,
          "velocity": 0.937007874015748
        },
        {
          "duration": 0.09154924999999992,
          "durationTicks": 182,
          "midi": 62,
          "name": "D4",
          "ticks": 145020,
          "time": 72.94764964285714,
          "velocity": 0.8346456692913385
        },
        {
          "duration": 0.0995975357142953,
          "durationTicks": 198,
          "midi": 67,
          "name": "G4",
          "ticks": 145202,
          "time": 73.03919889285714,
          "velocity": 0.7716535433070866
        },
        {
          "duration": 0.0774647500000043,
          "durationTicks": 154,
          "midi": 69,
          "name": "A4",
          "ticks": 145400,
          "time": 73.13879642857144,
          "velocity": 0.7716535433070866
        },
        {
          "duration": 0.45875228571428295,
          "durationTicks": 912,
          "midi": 71,
          "name": "B4",
          "ticks": 145554,
          "time": 73.21626117857144,
          "velocity": 0.8503937007874016
        },
        {
          "duration": 0.07545267857142335,
          "durationTicks": 150,
          "midi": 62,
          "name": "D4",
          "ticks": 146466,
          "time": 73.67501346428573,
          "velocity": 0.6929133858267716
        },
        {
          "duration": 0.08953717857141896,
          "durationTicks": 178,
          "midi": 67,
          "name": "G4",
          "ticks": 146616,
          "time": 73.75046614285715,
          "velocity": 0.7480314960629921
        },
        {
          "duration": 0.08350096428573295,
          "durationTicks": 166,
          "midi": 69,
          "name": "A4",
          "ticks": 146794,
          "time": 73.84000332142857,
          "velocity": 0.8346456692913385
        },
        {
          "duration": 0.12223333928571378,
          "durationTicks": 243,
          "midi": 71,
          "name": "B4",
          "ticks": 146960,
          "time": 73.9235042857143,
          "velocity": 0.8346456692913385
        },
        {
          "duration": 0.09456735714285003,
          "durationTicks": 188,
          "midi": 67,
          "name": "G4",
          "ticks": 147203,
          "time": 74.04573762500002,
          "velocity": 0.84251968503937
        },
        {
          "duration": 0.09758546428571435,
          "durationTicks": 194,
          "midi": 65,
          "name": "F4",
          "ticks": 147413,
          "time": 74.15137137500001,
          "velocity": 0.7559055118110236
        },
        {
          "duration": 0.09154924999999992,
          "durationTicks": 182,
          "midi": 67,
          "name": "G4",
          "ticks": 147607,
          "time": 74.24895683928573,
          "velocity": 0.8346456692913385
        },
        {
          "duration": 0.47786696428570963,
          "durationTicks": 950,
          "midi": 69,
          "name": "A4",
          "ticks": 147789,
          "time": 74.34050608928573,
          "velocity": 0.84251968503937
        },
        {
          "duration": 0.07142853571428986,
          "durationTicks": 142,
          "midi": 65,
          "name": "F4",
          "ticks": 148786,
          "time": 74.84201489285715,
          "velocity": 0.7480314960629921
        },
        {
          "duration": 0.05885308928571931,
          "durationTicks": 117,
          "midi": 67,
          "name": "G4",
          "ticks": 148936,
          "time": 74.91746757142857,
          "velocity": 0.7874015748031497
        },
        {
          "duration": 0.10362167857142879,
          "durationTicks": 206,
          "midi": 69,
          "name": "A4",
          "ticks": 149053,
          "time": 74.9763206607143,
          "velocity": 0.8031496062992126
        },
        {
          "duration": 0.3601607857142852,
          "durationTicks": 716,
          "midi": 67,
          "name": "G4",
          "ticks": 149259,
          "time": 75.07994233928572,
          "velocity": 0.8188976377952756
        },
        {
          "duration": 0.11670014285714103,
          "durationTicks": 232,
          "midi": 64,
          "name": "E4",
          "ticks": 149996,
          "time": 75.45066650000001,
          "velocity": 0.8818897637795275
        },
        {
          "duration": 0.0850100178571438,
          "durationTicks": 169,
          "midi": 62,
          "name": "D4",
          "ticks": 151448,
          "time": 76.18104842857143,
          "velocity": 0.8267716535433071
        },
        {
          "duration": 0.1182091964285803,
          "durationTicks": 235,
          "midi": 67,
          "name": "G4",
          "ticks": 151752,
          "time": 76.33396585714286,
          "velocity": 0.6614173228346457
        },
        {
          "duration": 0.11519108928571598,
          "durationTicks": 229,
          "midi": 69,
          "name": "A4",
          "ticks": 151987,
          "time": 76.45217505357144,
          "velocity": 0.7165354330708661
        },
        {
          "duration": 0.12826955357142822,
          "durationTicks": 255,
          "midi": 71,
          "name": "B4",
          "ticks": 152228,
          "time": 76.57340235714287,
          "velocity": 0.8503937007874016
        },
        {
          "duration": 0.1438631071428489,
          "durationTicks": 286,
          "midi": 72,
          "name": "C5",
          "ticks": 152483,
          "time": 76.7016719107143,
          "velocity": 0.8818897637795275
        },
        {
          "duration": 0.19768601785715134,
          "durationTicks": 393,
          "midi": 71,
          "name": "B4",
          "ticks": 152769,
          "time": 76.84553501785715,
          "velocity": 0.7165354330708661
        },
        {
          "duration": 0.32645858928570703,
          "durationTicks": 649,
          "midi": 72,
          "name": "C5",
          "ticks": 153162,
          "time": 77.0432210357143,
          "velocity": 0.889763779527559
        },
        {
          "duration": 0.1393359464285595,
          "durationTicks": 277,
          "midi": 71,
          "name": "B4",
          "ticks": 153831,
          "time": 77.37973998214287,
          "velocity": 0.8582677165354331
        },
        {
          "duration": 0.12223333928571378,
          "durationTicks": 243,
          "midi": 67,
          "name": "G4",
          "ticks": 154134,
          "time": 77.53215439285715,
          "velocity": 0.6220472440944882
        },
        {
          "duration": 0.10160960714286205,
          "durationTicks": 202,
          "midi": 65,
          "name": "F4",
          "ticks": 154377,
          "time": 77.65438773214287,
          "velocity": 0.6614173228346457
        },
        {
          "duration": 0.06086516071427184,
          "durationTicks": 121,
          "midi": 67,
          "name": "G4",
          "ticks": 154579,
          "time": 77.75599733928573,
          "velocity": 0.7874015748031497
        },
        {
          "duration": 0.09758546428572856,
          "durationTicks": 194,
          "midi": 69,
          "name": "A4",
          "ticks": 154700,
          "time": 77.8168625,
          "velocity": 0.8661417322834646
        },
        {
          "duration": 0.27364171428570216,
          "durationTicks": 544,
          "midi": 70,
          "name": "A#4",
          "ticks": 154894,
          "time": 77.91444796428573,
          "velocity": 0.8976377952755905
        },
        {
          "duration": 0.17102607142857096,
          "durationTicks": 340,
          "midi": 69,
          "name": "A4",
          "ticks": 155680,
          "time": 78.30982000000002,
          "velocity": 0.8031496062992126
        },
        {
          "duration": 0.16498985714285652,
          "durationTicks": 328,
          "midi": 70,
          "name": "A#4",
          "ticks": 156020,
          "time": 78.48084607142859,
          "velocity": 0.8661417322834646
        },
        {
          "duration": 0.29678053571427654,
          "durationTicks": 590,
          "midi": 69,
          "name": "A4",
          "ticks": 156348,
          "time": 78.64583592857144,
          "velocity": 0.8346456692913385
        },
        {
          "duration": 0.11016091071429912,
          "durationTicks": 219,
          "midi": 62,
          "name": "D4",
          "ticks": 158129,
          "time": 79.54171073214286,
          "velocity": 0.8267716535433071
        },
        {
          "duration": 0.13128766071429254,
          "durationTicks": 261,
          "midi": 67,
          "name": "G4",
          "ticks": 158400,
          "time": 79.67802857142858,
          "velocity": 0.6141732283464567
        },
        {
          "duration": 0.1141850535714184,
          "durationTicks": 227,
          "midi": 69,
          "name": "A4",
          "ticks": 158699,
          "time": 79.8284309107143,
          "velocity": 0.7716535433070866
        },
        {
          "duration": 0.08651907142856885,
          "durationTicks": 172,
          "midi": 71,
          "name": "B4",
          "ticks": 158926,
          "time": 79.94261596428572,
          "velocity": 0.8661417322834646
        },
        {
          "duration": 0.7439634107142865,
          "durationTicks": 1479,
          "midi": 72,
          "name": "C5",
          "ticks": 159144,
          "time": 80.05227385714286,
          "velocity": 0.8661417322834646
        },
        {
          "duration": 0.10865185714285985,
          "durationTicks": 216,
          "midi": 71,
          "name": "B4",
          "ticks": 160623,
          "time": 80.79623726785715,
          "velocity": 0.8346456692913385
        },
        {
          "duration": 0.12625748214284727,
          "durationTicks": 251,
          "midi": 72,
          "name": "C5",
          "ticks": 160839,
          "time": 80.90488912500001,
          "velocity": 0.8582677165354331
        },
        {
          "duration": 0.12223333928571378,
          "durationTicks": 243,
          "midi": 71,
          "name": "B4",
          "ticks": 161090,
          "time": 81.03114660714286,
          "velocity": 0.7795275590551181
        },
        {
          "duration": 0.1071428035714348,
          "durationTicks": 213,
          "midi": 69,
          "name": "A4",
          "ticks": 161333,
          "time": 81.15337994642857,
          "velocity": 0.8031496062992126
        },
        {
          "duration": 0.081488892857152,
          "durationTicks": 162,
          "midi": 67,
          "name": "G4",
          "ticks": 161571,
          "time": 81.27309819642858,
          "velocity": 0.7874015748031497
        },
        {
          "duration": 0.08953717857143317,
          "durationTicks": 178,
          "midi": 66,
          "name": "F#4",
          "ticks": 161733,
          "time": 81.35458708928573,
          "velocity": 0.7637795275590551
        },
        {
          "duration": 0.08953717857141896,
          "durationTicks": 178,
          "midi": 65,
          "name": "F4",
          "ticks": 161911,
          "time": 81.44412426785716,
          "velocity": 0.7559055118110236
        },
        {
          "duration": 0.10965789285714322,
          "durationTicks": 218,
          "midi": 69,
          "name": "A4",
          "ticks": 162163,
          "time": 81.57088476785715,
          "velocity": 0.8031496062992126
        },
        {
          "duration": 0.08702208928572475,
          "durationTicks": 173,
          "midi": 64,
          "name": "E4",
          "ticks": 162381,
          "time": 81.6805426607143,
          "velocity": 0.8976377952755905
        },
        {
          "duration": 0.09959753571426688,
          "durationTicks": 198,
          "midi": 67,
          "name": "G4",
          "ticks": 162554,
          "time": 81.76756475000002,
          "velocity": 0.7086614173228346
        },
        {
          "duration": 0.09004019642857486,
          "durationTicks": 179,
          "midi": 65,
          "name": "F4",
          "ticks": 162752,
          "time": 81.86716228571429,
          "velocity": 0.7401574803149606
        },
        {
          "duration": 0.08702208928571054,
          "durationTicks": 173,
          "midi": 64,
          "name": "E4",
          "ticks": 162962,
          "time": 81.9727960357143,
          "velocity": 0.905511811023622
        },
        {
          "duration": 0.25955721428572076,
          "durationTicks": 516,
          "midi": 62,
          "name": "D4",
          "ticks": 163136,
          "time": 82.06032114285715,
          "velocity": 0.6929133858267716
        },
        {
          "duration": 0.09456735714285003,
          "durationTicks": 188,
          "midi": 60,
          "name": "C4",
          "ticks": 165919,
          "time": 83.46021983928573,
          "velocity": 0.8188976377952756
        },
        {
          "duration": 0.10211262499998952,
          "durationTicks": 203,
          "midi": 61,
          "name": "C#4",
          "ticks": 166121,
          "time": 83.56182944642859,
          "velocity": 0.7874015748031497
        },
        {
          "duration": 0.922534749999997,
          "durationTicks": 1834,
          "midi": 63,
          "name": "D#4",
          "ticks": 166331,
          "time": 83.66746319642859,
          "velocity": 0.8740157480314961
        },
        {
          "duration": 0.16851098214286253,
          "durationTicks": 335,
          "midi": 63,
          "name": "D#4",
          "ticks": 168180,
          "time": 84.59754321428572,
          "velocity": 0.8346456692913385
        },
        {
          "duration": 0.11519108928571598,
          "durationTicks": 229,
          "midi": 63,
          "name": "D#4",
          "ticks": 168634,
          "time": 84.82591332142857,
          "velocity": 0.84251968503937
        },
        {
          "duration": 0.2917503571428597,
          "durationTicks": 580,
          "midi": 63,
          "name": "D#4",
          "ticks": 169148,
          "time": 85.08446450000001,
          "velocity": 0.8110236220472441
        },
        {
          "duration": 0.39235392857142415,
          "durationTicks": 780,
          "midi": 58,
          "name": "A#3",
          "ticks": 169762,
          "time": 85.39331746428573,
          "velocity": 0.6692913385826772
        },
        {
          "duration": 0.11468807142857429,
          "durationTicks": 228,
          "midi": 53,
          "name": "F3",
          "ticks": 171491,
          "time": 86.26303533928572,
          "velocity": 0.8031496062992126
        },
        {
          "duration": 0.10563374999999553,
          "durationTicks": 210,
          "midi": 56,
          "name": "G#3",
          "ticks": 171729,
          "time": 86.38275358928573,
          "velocity": 0.7716535433070866
        },
        {
          "duration": 0.11166996428570997,
          "durationTicks": 222,
          "midi": 54,
          "name": "F#3",
          "ticks": 171939,
          "time": 86.48838733928572,
          "velocity": 0.7480314960629921
        },
        {
          "duration": 0.10965789285714322,
          "durationTicks": 218,
          "midi": 56,
          "name": "G#3",
          "ticks": 172177,
          "time": 86.60810558928573,
          "velocity": 0.7401574803149606
        },
        {
          "duration": 0.09657942857141677,
          "durationTicks": 192,
          "midi": 58,
          "name": "A#3",
          "ticks": 172403,
          "time": 86.72178762500002,
          "velocity": 0.7165354330708661
        },
        {
          "duration": 0.08953717857143317,
          "durationTicks": 178,
          "midi": 60,
          "name": "C4",
          "ticks": 172601,
          "time": 86.82138516071429,
          "velocity": 0.7480314960629921
        },
        {
          "duration": 0.09054321428573076,
          "durationTicks": 180,
          "midi": 61,
          "name": "C#4",
          "ticks": 172779,
          "time": 86.91092233928572,
          "velocity": 0.8110236220472441
        },
        {
          "duration": 0.20372223214285157,
          "durationTicks": 405,
          "midi": 63,
          "name": "D#4",
          "ticks": 172964,
          "time": 87.00398064285716,
          "velocity": 0.8503937007874016
        },
        {
          "duration": 0.17957737499999382,
          "durationTicks": 357,
          "midi": 63,
          "name": "D#4",
          "ticks": 173527,
          "time": 87.28717969642858,
          "velocity": 0.8582677165354331
        },
        {
          "duration": 0.5221325357142774,
          "durationTicks": 1038,
          "midi": 63,
          "name": "D#4",
          "ticks": 174070,
          "time": 87.56031839285716,
          "velocity": 0.8661417322834646
        },
        {
          "duration": 0.09154924999999992,
          "durationTicks": 182,
          "midi": 65,
          "name": "F4",
          "ticks": 175108,
          "time": 88.08245092857143,
          "velocity": 0.7322834645669292
        },
        {
          "duration": 0.06891344642858144,
          "durationTicks": 137,
          "midi": 66,
          "name": "F#4",
          "ticks": 175290,
          "time": 88.17400017857143,
          "velocity": 0.7559055118110236
        },
        {
          "duration": 0.3757543392857059,
          "durationTicks": 747,
          "midi": 68,
          "name": "G#4",
          "ticks": 175427,
          "time": 88.24291362500001,
          "velocity": 0.889763779527559
        },
        {
          "duration": 0.5241446071428584,
          "durationTicks": 1042,
          "midi": 58,
          "name": "A#3",
          "ticks": 176485,
          "time": 88.77510651785715,
          "velocity": 0.6771653543307087
        },
        {
          "duration": 0.08551303571428548,
          "durationTicks": 170,
          "midi": 60,
          "name": "C4",
          "ticks": 178643,
          "time": 89.86061905357144,
          "velocity": 0.8031496062992126
        },
        {
          "duration": 0.08551303571428548,
          "durationTicks": 170,
          "midi": 61,
          "name": "C#4",
          "ticks": 178813,
          "time": 89.94613208928573,
          "velocity": 0.84251968503937
        },
        {
          "duration": 0.2736417142857164,
          "durationTicks": 544,
          "midi": 63,
          "name": "D#4",
          "ticks": 178983,
          "time": 90.03164512500001,
          "velocity": 0.8503937007874016
        },
        {
          "duration": 0.2067403392857159,
          "durationTicks": 411,
          "midi": 63,
          "name": "D#4",
          "ticks": 179570,
          "time": 90.32691660714286,
          "velocity": 0.8582677165354331
        },
        {
          "duration": 0.14587517857142984,
          "durationTicks": 290,
          "midi": 63,
          "name": "D#4",
          "ticks": 180198,
          "time": 90.64281182142858,
          "velocity": 0.84251968503937
        },
        {
          "duration": 0.046780660714290434,
          "durationTicks": 93,
          "midi": 64,
          "name": "E4",
          "ticks": 180777,
          "time": 90.9340591607143,
          "velocity": 0.7637795275590551
        },
        {
          "duration": 0.7198185535714288,
          "durationTicks": 1431,
          "midi": 65,
          "name": "F4",
          "ticks": 180874,
          "time": 90.98285189285716,
          "velocity": 0.8031496062992126
        },
        {
          "duration": 0.06891344642858144,
          "durationTicks": 137,
          "midi": 61,
          "name": "C#4",
          "ticks": 182431,
          "time": 91.76605069642858,
          "velocity": 0.7637795275590551
        },
        {
          "duration": 0.09406433928570834,
          "durationTicks": 187,
          "midi": 63,
          "name": "D#4",
          "ticks": 182568,
          "time": 91.83496414285716,
          "velocity": 0.8818897637795275
        },
        {
          "duration": 0.4159957678571402,
          "durationTicks": 827,
          "midi": 68,
          "name": "G#4",
          "ticks": 182782,
          "time": 91.94260996428572,
          "velocity": 0.8582677165354331
        },
        {
          "duration": 0.05080480357143813,
          "durationTicks": 101,
          "midi": 67,
          "name": "G4",
          "ticks": 183621,
          "time": 92.36464194642858,
          "velocity": 0.8031496062992126
        },
        {
          "duration": 0.058853089285705096,
          "durationTicks": 117,
          "midi": 65,
          "name": "F4",
          "ticks": 183722,
          "time": 92.41544675000002,
          "velocity": 0.8031496062992126
        },
        {
          "duration": 0.06891344642858144,
          "durationTicks": 137,
          "midi": 63,
          "name": "D#4",
          "ticks": 183839,
          "time": 92.47429983928572,
          "velocity": 0.8031496062992126
        },
        {
          "duration": 0.06690137500000048,
          "durationTicks": 133,
          "midi": 61,
          "name": "C#4",
          "ticks": 183976,
          "time": 92.5432132857143,
          "velocity": 0.8267716535433071
        },
        {
          "duration": 0.6448688928571613,
          "durationTicks": 1282,
          "midi": 63,
          "name": "D#4",
          "ticks": 184182,
          "time": 92.64683496428572,
          "velocity": 0.84251968503937
        },
        {
          "duration": 0.1182091964285803,
          "durationTicks": 235,
          "midi": 63,
          "name": "D#4",
          "ticks": 186652,
          "time": 93.88928907142858,
          "velocity": 0.8188976377952756
        },
        {
          "duration": 0.1106639285714266,
          "durationTicks": 220,
          "midi": 66,
          "name": "F#4",
          "ticks": 186919,
          "time": 94.02359483928574,
          "velocity": 0.6456692913385826
        },
        {
          "duration": 0.11217298214286586,
          "durationTicks": 223,
          "midi": 73,
          "name": "C#5",
          "ticks": 187330,
          "time": 94.23033517857144,
          "velocity": 0.7007874015748031
        },
        {
          "duration": 0.49547258928572546,
          "durationTicks": 985,
          "midi": 77,
          "name": "F5",
          "ticks": 187711,
          "time": 94.42198498214286,
          "velocity": 0.7559055118110236
        },
        {
          "duration": 0.11619712499999935,
          "durationTicks": 231,
          "midi": 75,
          "name": "D#5",
          "ticks": 188700,
          "time": 94.91946964285715,
          "velocity": 0.8818897637795275
        },
        {
          "duration": 0.10211262500000373,
          "durationTicks": 203,
          "midi": 73,
          "name": "C#5",
          "ticks": 188979,
          "time": 95.05981162500001,
          "velocity": 0.8346456692913385
        },
        {
          "duration": 0.15643855357141945,
          "durationTicks": 311,
          "midi": 72,
          "name": "C5",
          "ticks": 189193,
          "time": 95.16745744642859,
          "velocity": 0.6929133858267716
        },
        {
          "duration": 0.10060357142857868,
          "durationTicks": 200,
          "midi": 70,
          "name": "A#4",
          "ticks": 189512,
          "time": 95.32792014285715,
          "velocity": 0.8661417322834646
        },
        {
          "duration": 0.11016091071428491,
          "durationTicks": 219,
          "midi": 68,
          "name": "G#4",
          "ticks": 189714,
          "time": 95.42952975000001,
          "velocity": 0.8503937007874016
        },
        {
          "duration": 0.10160960714286205,
          "durationTicks": 202,
          "midi": 67,
          "name": "G4",
          "ticks": 189933,
          "time": 95.5396906607143,
          "velocity": 0.8267716535433071
        },
        {
          "duration": 0.1544264821428527,
          "durationTicks": 307,
          "midi": 66,
          "name": "F#4",
          "ticks": 190135,
          "time": 95.64130026785716,
          "velocity": 0.8031496062992126
        },
        {
          "duration": 0.12223333928571378,
          "durationTicks": 243,
          "midi": 64,
          "name": "E4",
          "ticks": 190824,
          "time": 95.98787957142858,
          "velocity": 0.937007874015748
        },
        {
          "duration": 0.09305830357143918,
          "durationTicks": 185,
          "midi": 65,
          "name": "F4",
          "ticks": 191067,
          "time": 96.11011291071429,
          "velocity": 0.6771653543307087
        },
        {
          "duration": 0.07394362499999829,
          "durationTicks": 147,
          "midi": 69,
          "name": "A4",
          "ticks": 191269,
          "time": 96.21172251785715,
          "velocity": 0.5905511811023622
        },
        {
          "duration": 0.06941646428570891,
          "durationTicks": 138,
          "midi": 76,
          "name": "E5",
          "ticks": 191575,
          "time": 96.36564598214288,
          "velocity": 0.6850393700787402
        },
        {
          "duration": 0.7660961964285775,
          "durationTicks": 1523,
          "midi": 79,
          "name": "G5",
          "ticks": 191794,
          "time": 96.47580689285715,
          "velocity": 0.8503937007874016
        },
        {
          "duration": 0.1438631071428489,
          "durationTicks": 286,
          "midi": 77,
          "name": "F5",
          "ticks": 193369,
          "time": 97.26806001785715,
          "velocity": 0.7322834645669292
        },
        {
          "duration": 0.2178067321428614,
          "durationTicks": 433,
          "midi": 76,
          "name": "E5",
          "ticks": 193655,
          "time": 97.411923125,
          "velocity": 0.7480314960629921
        },
        {
          "duration": 0.04627764285713454,
          "durationTicks": 92,
          "midi": 74,
          "name": "D5",
          "ticks": 194153,
          "time": 97.66242601785716,
          "velocity": 0.6929133858267716
        },
        {
          "duration": 0.16498985714285652,
          "durationTicks": 328,
          "midi": 76,
          "name": "E5",
          "ticks": 194379,
          "time": 97.77610805357145,
          "velocity": 0.8503937007874016
        },
        {
          "duration": 0.17102607142857096,
          "durationTicks": 340,
          "midi": 72,
          "name": "C5",
          "ticks": 194832,
          "time": 98.00397514285716,
          "velocity": 0.8188976377952756
        },
        {
          "duration": 0.15694157142857534,
          "durationTicks": 312,
          "midi": 72,
          "name": "C5",
          "ticks": 195350,
          "time": 98.26453839285715,
          "velocity": 0.8818897637795275
        },
        {
          "duration": 0.11116694642856828,
          "durationTicks": 221,
          "midi": 69,
          "name": "A4",
          "ticks": 195669,
          "time": 98.42500108928573,
          "velocity": 0.8661417322834646
        },
        {
          "duration": 0.08199191071427947,
          "durationTicks": 163,
          "midi": 65,
          "name": "F4",
          "ticks": 196135,
          "time": 98.6594074107143,
          "velocity": 0.8267716535433071
        },
        {
          "duration": 0.1770622857142854,
          "durationTicks": 352,
          "midi": 62,
          "name": "D4",
          "ticks": 196373,
          "time": 98.7791256607143,
          "velocity": 0.7244094488188977
        },
        {
          "duration": 0.24446667857144178,
          "durationTicks": 486,
          "midi": 67,
          "name": "G4",
          "ticks": 196741,
          "time": 98.96423623214287,
          "velocity": 0.7874015748031497
        },
        {
          "duration": 0.030181071428586392,
          "durationTicks": 60,
          "midi": 72,
          "name": "C5",
          "ticks": 198537,
          "time": 99.86765630357144,
          "velocity": 0.8661417322834646
        },
        {
          "duration": 0.034205214285705665,
          "durationTicks": 68,
          "midi": 73,
          "name": "C#5",
          "ticks": 198597,
          "time": 99.89783737500002,
          "velocity": 0.8582677165354331
        },
        {
          "duration": 0.19667998214285376,
          "durationTicks": 391,
          "midi": 74,
          "name": "D5",
          "ticks": 198665,
          "time": 99.93204258928573,
          "velocity": 0.8267716535433071
        },
        {
          "duration": 0.06891344642858144,
          "durationTicks": 137,
          "midi": 73,
          "name": "C#5",
          "ticks": 199192,
          "time": 100.19713300000001,
          "velocity": 0.8267716535433071
        },
        {
          "duration": 0.09305830357142497,
          "durationTicks": 185,
          "midi": 72,
          "name": "C5",
          "ticks": 199329,
          "time": 100.26604644642859,
          "velocity": 0.8582677165354331
        },
        {
          "duration": 0.08400398214286042,
          "durationTicks": 167,
          "midi": 71,
          "name": "B4",
          "ticks": 199515,
          "time": 100.35960776785716,
          "velocity": 0.8346456692913385
        },
        {
          "duration": 0.11569410714285766,
          "durationTicks": 230,
          "midi": 69,
          "name": "A4",
          "ticks": 199725,
          "time": 100.46524151785715,
          "velocity": 0.8031496062992126
        },
        {
          "duration": 0.042253500000001054,
          "durationTicks": 84,
          "midi": 67,
          "name": "G4",
          "ticks": 199993,
          "time": 100.60005030357144,
          "velocity": 0.7795275590551181
        },
        {
          "duration": 0.058853089285705096,
          "durationTicks": 117,
          "midi": 66,
          "name": "F#4",
          "ticks": 200169,
          "time": 100.68858144642859,
          "velocity": 0.7795275590551181
        },
        {
          "duration": 0.08148889285713778,
          "durationTicks": 162,
          "midi": 65,
          "name": "F4",
          "ticks": 200290,
          "time": 100.74944660714287,
          "velocity": 0.7795275590551181
        },
        {
          "duration": 0.12776653571428653,
          "durationTicks": 254,
          "midi": 69,
          "name": "A4",
          "ticks": 200532,
          "time": 100.87117692857144,
          "velocity": 0.7716535433070866
        },
        {
          "duration": 0.10211262500000373,
          "durationTicks": 203,
          "midi": 64,
          "name": "E4",
          "ticks": 200786,
          "time": 100.99894346428573,
          "velocity": 0.8661417322834646
        },
        {
          "duration": 0.07746474999999009,
          "durationTicks": 154,
          "midi": 67,
          "name": "G4",
          "ticks": 201073,
          "time": 101.14330958928574,
          "velocity": 0.7401574803149606
        },
        {
          "duration": 0.08249492857143537,
          "durationTicks": 164,
          "midi": 65,
          "name": "F4",
          "ticks": 201227,
          "time": 101.22077433928573,
          "velocity": 0.7874015748031497
        },
        {
          "duration": 0.07545267857142335,
          "durationTicks": 150,
          "midi": 57,
          "name": "A3",
          "ticks": 201737,
          "time": 101.4773134464286,
          "velocity": 0.7086614173228346
        },
        {
          "duration": 0.08350096428570453,
          "durationTicks": 166,
          "midi": 59,
          "name": "B3",
          "ticks": 201887,
          "time": 101.55276612500002,
          "velocity": 0.7637795275590551
        },
        {
          "duration": 0.08752510714285222,
          "durationTicks": 174,
          "midi": 61,
          "name": "C#4",
          "ticks": 202053,
          "time": 101.63626708928572,
          "velocity": 0.8110236220472441
        },
        {
          "duration": 0.09154924999999992,
          "durationTicks": 182,
          "midi": 62,
          "name": "D4",
          "ticks": 202227,
          "time": 101.72379219642858,
          "velocity": 0.84251968503937
        },
        {
          "duration": 0.10965789285714322,
          "durationTicks": 218,
          "midi": 64,
          "name": "E4",
          "ticks": 202449,
          "time": 101.83546216071429,
          "velocity": 0.9212598425196851
        },
        {
          "duration": 0.1066397857142789,
          "durationTicks": 212,
          "midi": 61,
          "name": "C#4",
          "ticks": 202674,
          "time": 101.94864117857145,
          "velocity": 0.7480314960629921
        },
        {
          "duration": 0.09758546428571435,
          "durationTicks": 194,
          "midi": 62,
          "name": "D4",
          "ticks": 202886,
          "time": 102.05528096428573,
          "velocity": 0.8188976377952756
        },
        {
          "duration": 0.0995975357142811,
          "durationTicks": 198,
          "midi": 64,
          "name": "E4",
          "ticks": 203080,
          "time": 102.15286642857144,
          "velocity": 0.7874015748031497
        },
        {
          "duration": 0.08953717857143317,
          "durationTicks": 178,
          "midi": 65,
          "name": "F4",
          "ticks": 203278,
          "time": 102.25246396428572,
          "velocity": 0.7244094488188977
        },
        {
          "duration": 0.09356132142856666,
          "durationTicks": 186,
          "midi": 67,
          "name": "G4",
          "ticks": 203456,
          "time": 102.34200114285716,
          "velocity": 0.7795275590551181
        },
        {
          "duration": 0.1554325178571503,
          "durationTicks": 309,
          "midi": 69,
          "name": "A4",
          "ticks": 203642,
          "time": 102.43556246428572,
          "velocity": 0.8582677165354331
        },
        {
          "duration": 0.7570418749999988,
          "durationTicks": 1505,
          "midi": 69,
          "name": "A4",
          "ticks": 205755,
          "time": 103.49843919642859,
          "velocity": 0.84251968503937
        },
        {
          "duration": 0.09657942857143098,
          "durationTicks": 192,
          "midi": 69,
          "name": "A4",
          "ticks": 207500,
          "time": 104.37620535714287,
          "velocity": 0.8661417322834646
        },
        {
          "duration": 0.14939630357145006,
          "durationTicks": 297,
          "midi": 69,
          "name": "A4",
          "ticks": 207868,
          "time": 104.56131592857143,
          "velocity": 0.8582677165354331
        },
        {
          "duration": 0.07746474999997588,
          "durationTicks": 154,
          "midi": 72,
          "name": "C5",
          "ticks": 208165,
          "time": 104.71071223214288,
          "velocity": 0.8582677165354331
        },
        {
          "duration": 0.844566982142851,
          "durationTicks": 1679,
          "midi": 67,
          "name": "G4",
          "ticks": 208323,
          "time": 104.79018905357144,
          "velocity": 0.8346456692913385
        },
        {
          "duration": 0.11016091071429912,
          "durationTicks": 219,
          "midi": 66,
          "name": "F#4",
          "ticks": 210002,
          "time": 105.63475603571429,
          "velocity": 0.7716535433070866
        },
        {
          "duration": 0.11267599999999334,
          "durationTicks": 224,
          "midi": 65,
          "name": "F4",
          "ticks": 210221,
          "time": 105.74491694642859,
          "velocity": 0.7716535433070866
        },
        {
          "duration": 0.09758546428572856,
          "durationTicks": 194,
          "midi": 69,
          "name": "A4",
          "ticks": 210483,
          "time": 105.87670762500001,
          "velocity": 0.7795275590551181
        },
        {
          "duration": 0.10563374999999553,
          "durationTicks": 210,
          "midi": 64,
          "name": "E4",
          "ticks": 210677,
          "time": 105.97429308928574,
          "velocity": 0.937007874015748
        },
        {
          "duration": 0.1468812142857132,
          "durationTicks": 292,
          "midi": 67,
          "name": "G4",
          "ticks": 210887,
          "time": 106.07992683928573,
          "velocity": 0.7637795275590551
        },
        {
          "duration": 0.1473842321428549,
          "durationTicks": 293,
          "midi": 65,
          "name": "F4",
          "ticks": 211182,
          "time": 106.22831710714287,
          "velocity": 0.7716535433070866
        },
        {
          "duration": 0.12072428571427452,
          "durationTicks": 240,
          "midi": 57,
          "name": "A3",
          "ticks": 211855,
          "time": 106.56684812500002,
          "velocity": 0.7244094488188977
        },
        {
          "duration": 0.1106639285714266,
          "durationTicks": 220,
          "midi": 61,
          "name": "C#4",
          "ticks": 212101,
          "time": 106.69059051785716,
          "velocity": 0.6929133858267716
        },
        {
          "duration": 0.11317901785713502,
          "durationTicks": 225,
          "midi": 64,
          "name": "E4",
          "ticks": 212420,
          "time": 106.85105321428573,
          "velocity": 0.8582677165354331
        },
        {
          "duration": 0.10865185714285985,
          "durationTicks": 216,
          "midi": 61,
          "name": "C#4",
          "ticks": 212662,
          "time": 106.9727835357143,
          "velocity": 0.7559055118110236
        },
        {
          "duration": 0.081488892857152,
          "durationTicks": 162,
          "midi": 62,
          "name": "D4",
          "ticks": 212884,
          "time": 107.08445350000001,
          "velocity": 0.7716535433070866
        },
        {
          "duration": 0.08752510714285222,
          "durationTicks": 174,
          "midi": 64,
          "name": "E4",
          "ticks": 213046,
          "time": 107.16594239285716,
          "velocity": 0.7952755905511811
        },
        {
          "duration": 0.05985912500000268,
          "durationTicks": 119,
          "midi": 65,
          "name": "F4",
          "ticks": 213220,
          "time": 107.25346750000001,
          "velocity": 0.7165354330708661
        },
        {
          "duration": 0.07243457142857324,
          "durationTicks": 144,
          "midi": 67,
          "name": "G4",
          "ticks": 213353,
          "time": 107.32036887500001,
          "velocity": 0.6535433070866141
        },
        {
          "duration": 0.12273635714285547,
          "durationTicks": 244,
          "midi": 69,
          "name": "A4",
          "ticks": 213551,
          "time": 107.4199664107143,
          "velocity": 0.8031496062992126
        },
        {
          "duration": 0.10764582142857648,
          "durationTicks": 214,
          "midi": 72,
          "name": "C5",
          "ticks": 213795,
          "time": 107.54270276785715,
          "velocity": 0.8188976377952756
        },
        {
          "duration": 0.1182091964285803,
          "durationTicks": 235,
          "midi": 71,
          "name": "B4",
          "ticks": 214009,
          "time": 107.65034858928573,
          "velocity": 0.8031496062992126
        },
        {
          "duration": 0.10965789285714322,
          "durationTicks": 218,
          "midi": 69,
          "name": "A4",
          "ticks": 214244,
          "time": 107.76855778571431,
          "velocity": 0.7795275590551181
        },
        {
          "duration": 0.09657942857143098,
          "durationTicks": 192,
          "midi": 68,
          "name": "G#4",
          "ticks": 214499,
          "time": 107.89682733928572,
          "velocity": 0.8188976377952756
        },
        {
          "duration": 0.09909451785713941,
          "durationTicks": 197,
          "midi": 71,
          "name": "B4",
          "ticks": 214721,
          "time": 108.00849730357145,
          "velocity": 0.8031496062992126
        },
        {
          "duration": 0.10160960714286205,
          "durationTicks": 202,
          "midi": 69,
          "name": "A4",
          "ticks": 214919,
          "time": 108.10809483928573,
          "velocity": 0.7874015748031497
        },
        {
          "duration": 0.09607641071427508,
          "durationTicks": 191,
          "midi": 65,
          "name": "F4",
          "ticks": 215124,
          "time": 108.21121350000003,
          "velocity": 0.7952755905511811
        },
        {
          "duration": 0.09507037499999171,
          "durationTicks": 189,
          "midi": 64,
          "name": "E4",
          "ticks": 215315,
          "time": 108.3072899107143,
          "velocity": 0.8976377952755905
        },
        {
          "duration": 0.09657942857143098,
          "durationTicks": 192,
          "midi": 67,
          "name": "G4",
          "ticks": 215517,
          "time": 108.40889951785715,
          "velocity": 0.7637795275590551
        },
        {
          "duration": 0.058853089285705096,
          "durationTicks": 117,
          "midi": 65,
          "name": "F4",
          "ticks": 215751,
          "time": 108.52660569642859,
          "velocity": 0.7637795275590551
        },
        {
          "duration": 0.06488930357141953,
          "durationTicks": 129,
          "midi": 62,
          "name": "D4",
          "ticks": 215892,
          "time": 108.59753121428574,
          "velocity": 0.8031496062992126
        },
        {
          "duration": 0.0920522678571416,
          "durationTicks": 183,
          "midi": 61,
          "name": "C#4",
          "ticks": 216021,
          "time": 108.66242051785716,
          "velocity": 0.7795275590551181
        },
        {
          "duration": 0.11016091071429912,
          "durationTicks": 219,
          "midi": 64,
          "name": "E4",
          "ticks": 216280,
          "time": 108.79270214285715,
          "velocity": 0.8740157480314961
        },
        {
          "duration": 0.1101609107142707,
          "durationTicks": 219,
          "midi": 62,
          "name": "D4",
          "ticks": 216499,
          "time": 108.90286305357145,
          "velocity": 0.7086614173228346
        },
        {
          "duration": 0.0960764107143035,
          "durationTicks": 191,
          "midi": 60,
          "name": "C4",
          "ticks": 216718,
          "time": 109.01302396428572,
          "velocity": 0.7322834645669292
        },
        {
          "duration": 0.10663978571429311,
          "durationTicks": 212,
          "midi": 59,
          "name": "B3",
          "ticks": 216928,
          "time": 109.11865771428572,
          "velocity": 0.7480314960629921
        },
        {
          "duration": 0.10563374999999553,
          "durationTicks": 210,
          "midi": 57,
          "name": "A3",
          "ticks": 217140,
          "time": 109.22529750000001,
          "velocity": 0.7165354330708661
        },
        {
          "duration": 0.0960764107142893,
          "durationTicks": 191,
          "midi": 55,
          "name": "G3",
          "ticks": 217350,
          "time": 109.33093125,
          "velocity": 0.8110236220472441
        },
        {
          "duration": 0.12122730357144462,
          "durationTicks": 241,
          "midi": 54,
          "name": "F#3",
          "ticks": 217541,
          "time": 109.4270076607143,
          "velocity": 0.7322834645669292
        },
        {
          "duration": 0.13430576785712844,
          "durationTicks": 267,
          "midi": 53,
          "name": "F3",
          "ticks": 217782,
          "time": 109.54823496428574,
          "velocity": 0.7165354330708661
        }
      ],
      "endOfTrackTicks": 218049
    }
  ]
}
